<svg width="904" height="514" viewBox="0 0 904 514" xmlns="http://www.w3.org/2000/svg" xmlns:xlink="http://www.w3.org/1999/xlink" data-cache="1690472390053">
<style>
path.line-0 {
  stroke-dasharray: 1087 1092;
  stroke-dashoffset: 1087;
  animation: draw-0 10733.097748877903ms ease forwards infinite;
}
@keyframes draw-0 {
  0% { stroke-dashoffset: 1087; }
  18.75% { stroke-dashoffset: 0; }
  88.82% { stroke-dashoffset: 0; }
  91.81% { stroke-dashoffset: 1087; }
  100% { stroke-dashoffset: 1087; }
}
path.line-1 {
  stroke-dasharray: 377 382;
  stroke-dashoffset: 377;
  animation: draw-1 10733.097748877903ms ease forwards infinite;
}
@keyframes draw-1 {
  0% { stroke-dashoffset: 377; }
  18.74971320965248% { stroke-dashoffset: 377; }
  25.25% { stroke-dashoffset: 0; }
  85.83% { stroke-dashoffset: 0; }
  86.87% { stroke-dashoffset: 377; }
  100% { stroke-dashoffset: 377; }
}
path.line-2 {
  stroke-dasharray: 365 370;
  stroke-dashoffset: 365;
  animation: draw-2 10733.097748877903ms ease forwards infinite;
}
@keyframes draw-2 {
  0% { stroke-dashoffset: 365; }
  25.25113018200748% { stroke-dashoffset: 365; }
  31.55% { stroke-dashoffset: 0; }
  84.80% { stroke-dashoffset: 0; }
  85.80% { stroke-dashoffset: 365; }
  100% { stroke-dashoffset: 365; }
}
path.line-3 {
  stroke-dasharray: 1236 1241;
  stroke-dashoffset: 1236;
  animation: draw-3 10733.097748877903ms ease forwards infinite;
}
@keyframes draw-3 {
  0% { stroke-dashoffset: 1236; }
  31.54911692646989% { stroke-dashoffset: 1236; }
  52.87% { stroke-dashoffset: 0; }
  83.79% { stroke-dashoffset: 0; }
  87.19% { stroke-dashoffset: 1236; }
  100% { stroke-dashoffset: 1236; }
}
path.line-4 {
  stroke-dasharray: 232 237;
  stroke-dashoffset: 232;
  animation: draw-4 10733.097748877903ms ease forwards infinite;
}
@keyframes draw-4 {
  0% { stroke-dashoffset: 232; }
  52.86661016437625% { stroke-dashoffset: 232; }
  56.87% { stroke-dashoffset: 0; }
  80.40% { stroke-dashoffset: 0; }
  81.04% { stroke-dashoffset: 232; }
  100% { stroke-dashoffset: 232; }
}
path.line-5 {
  stroke-dasharray: 239 244;
  stroke-dashoffset: 239;
  animation: draw-5 10733.097748877903ms ease forwards infinite;
}
@keyframes draw-5 {
  0% { stroke-dashoffset: 239; }
  56.86927952580714% { stroke-dashoffset: 239; }
  61.00% { stroke-dashoffset: 0; }
  79.76% { stroke-dashoffset: 0; }
  80.42% { stroke-dashoffset: 239; }
  100% { stroke-dashoffset: 239; }
}
path.line-6 {
  stroke-dasharray: 322 327;
  stroke-dashoffset: 322;
  animation: draw-6 10733.097748877903ms ease forwards infinite;
}
@keyframes draw-6 {
  0% { stroke-dashoffset: 322; }
  60.99991246228792% { stroke-dashoffset: 322; }
  66.56% { stroke-dashoffset: 0; }
  79.10% { stroke-dashoffset: 0; }
  79.99% { stroke-dashoffset: 322; }
  100% { stroke-dashoffset: 322; }
}
path.line-7 {
  stroke-dasharray: 124 129;
  stroke-dashoffset: 124;
  animation: draw-7 10733.097748877903ms ease forwards infinite;
}
@keyframes draw-7 {
  0% { stroke-dashoffset: 124; }
  66.5584108991976% { stroke-dashoffset: 124; }
  68.70% { stroke-dashoffset: 0; }
  78.22% { stroke-dashoffset: 0; }
  78.56% { stroke-dashoffset: 124; }
  100% { stroke-dashoffset: 124; }
}
path.line-8 {
  stroke-dasharray: 41 46;
  stroke-dashoffset: 41;
  animation: draw-8 10733.097748877903ms ease forwards infinite;
}
@keyframes draw-8 {
  0% { stroke-dashoffset: 41; }
  68.70037568080637% { stroke-dashoffset: 41; }
  69.40% { stroke-dashoffset: 0; }
  77.88% { stroke-dashoffset: 0; }
  77.99% { stroke-dashoffset: 41; }
  100% { stroke-dashoffset: 41; }
}
path.line-9 {
  stroke-dasharray: 0 5;
  stroke-dashoffset: 0;
  animation: draw-9 10733.097748877903ms ease forwards infinite;
}
@keyframes draw-9 {
  0% { stroke-dashoffset: 0; }
  69.40211975774456% { stroke-dashoffset: 0; }
  69.40% { stroke-dashoffset: 0; }
  77.76% { stroke-dashoffset: 0; }
  77.76% { stroke-dashoffset: 0; }
  100% { stroke-dashoffset: 0; }
}
path.line-10 {
  stroke-dasharray: 45 50;
  stroke-dashoffset: 45;
  animation: draw-10 10733.097748877903ms ease forwards infinite;
}
@keyframes draw-10 {
  0% { stroke-dashoffset: 45; }
  69.40211975774456% { stroke-dashoffset: 45; }
  70.19% { stroke-dashoffset: 0; }
  77.76% { stroke-dashoffset: 0; }
  77.89% { stroke-dashoffset: 45; }
  100% { stroke-dashoffset: 45; }
}
</style>
<g mask="url(#brush)">
<path d="M227,142.5L228,141.5L229,140.5L230,139.5L232,138.5L233,137.5L235,136.5L238,134.5L240,133.5L243,131.5L245,128.5L248,126.5L251,124.5L254,121.5L257,119.5L259,116.5L262,114.5L264,111.5L266,109.5L269,106.5L271,104.5L273,101.5L275,98.5L277,96.5L279,93.5L280,91.5L282,88.5L283,85.5L284,83.5L285,81.5L285,79.5L286,77.5L286,74.5L286,72.5L286,70.5L286,69.5L286,67.5L286,65.5L285,64.5L285,63.5L284,61.5L283,60.5L283,59.5L281,58.5L280,56.5L279,55.5L277,54.5L275,52.5L273,51.5L271,51.5L268,50.5L266,50.5L263,50.5L261,50.5L258,50.5L256,50.5L253,50.5L250,50.5L248,50.5L245,50.5L242,50.5L240,51.5L237,52.5L234,52.5L231,53.5L228,54.5L225,55.5L222,56.5L218,58.5L215,60.5L212,61.5L208,63.5L204,66.5L201,68.5L198,70.5L194,72.5L191,74.5L188,76.5L185,78.5L182,80.5L179,82.5L176,84.5L173,86.5L170,89.5L167,91.5L164,93.5L162,96.5L159,99.5L156,101.5L153,104.5L150,107.5L148,109.5L145,111.5L143,114.5L140,116.5L138,119.5L136,122.5L133,125.5L131,128.5L128,131.5L126,133.5L123,136.5L121,140.5L118,143.5L116,146.5L114,149.5L112,152.5L109,155.5L107,158.5L105,160.5L104,163.5L102,167.5L100,170.5L98,174.5L97,177.5L96,180.5L95,183.5L94,185.5L94,187.5L93,190.5L93,192.5L92,194.5L92,197.5L91,199.5L91,201.5L91,203.5L91,205.5L91,207.5L91,209.5L91,211.5L91,213.5L91,215.5L91,216.5L91,218.5L92,220.5L92,222.5L92,223.5L92,225.5L93,227.5L93,229.5L94,230.5L94,232.5L94,233.5L95,234.5L96,236.5L96,237.5L97,238.5L97,239.5L98,241.5L99,242.5L100,243.5L100,244.5L101,245.5L102,246.5L103,247.5L103,248.5L104,249.5L105,250.5L106,251.5L106,252.5L107,252.5L108,253.5L109,254.5L110,255.5L111,255.5L112,256.5L113,256.5L114,257.5L115,258.5L117,258.5L118,259.5L119,259.5L121,259.5L123,259.5L125,259.5L127,259.5L129,259.5L132,259.5L134,259.5L137,259.5L139,258.5L142,258.5L144,258.5L147,257.5L150,256.5L153,256.5L156,254.5L160,253.5L164,252.5L168,250.5L172,248.5L177,245.5L181,243.5L185,241.5L190,238.5L194,235.5L199,232.5L204,229.5L209,226.5L214,223.5L219,219.5L224,215.5L230,211.5L236,207.5L241,203.5L247,199.5L252,195.5L257,192.5L262,189.5L267,187.5L270,185.5L273,183.5L277,180.5L279,179.5L281,177.5L283,175.5L285,173.5L286,172.5L287,170.5L288,169.5L289,168.5L289,167.5L289,166.5L288,166.5L287,165.5L286,165.5L285,164.5L284,164.5L282,163.5L280,163.5L279,163.5L277,162.5L275,162.5L273,162.5L271,162.5L268,162.5L266,162.5L263,163.5L261,164.5L258,165.5L255,166.5L253,167.5L251,168.5L248,170.5L246,171.5L243,173.5L241,175.5L239,177.5L236,179.5L233,182.5L230,185.5L227,189.5L224,193.5L221,197.5L218,201.5L215,204.5L213,207.5L211,210.5L209,213.5L207,216.5L205,218.5L204,220.5L203,222.5L202,224.5L201,226.5L201,228.5L201,230.5L201,231.5L200,233.5L200,234.5L200,236.5L200,237.5L200,238.5L200,239.5L200,240.5L200,241.5L200,242.5L201,243.5L201,244.5L201,245.5L201,246.5L202,247.5L202,248.5L203,249.5L203,250.5L204,250.5L204,251.5L205,252.5L205,253.5L206,253.5L206,254.5L207,254.5L208,255.5L209,255.5L210,255.5L211,256.5L212,256.5L213,256.5L214,256.5L215,256.5L216,256.5L217,256.5L218,255.5L219,255.5L220,255.5L221,254.5L222,254.5L223,254.5L224,253.5L225,252.5L226,252.5L228,251.5L229,250.5L230,249.5L232,248.5L234,247.5L235,246.5L236,245.5L237,244.5L239,244.5L240,243.5L241,242.5L242,241.5L243,240.5L244,239.5L245,238.5L246,237.5L247,236.5L248,235.5L249,234.5L250,233.5L251,232.5L252,231.5L253,230.5L255,229.5L255,228.5L256,227.5L258,226.5L259,225.5L260,224.5L261,223.5L262,221.5L263,220.5L264,218.5L265,217.5L266,216.5L267,215.5L268,214.5L269,213.5L270,212.5L271,210.5L271,209.5L272,208.5L273,207.5L274,206.5L275,205.5L276,204.5L277,203.5L278,202.5L279,200.5L279,199.5L280,198.5L281,197.5L282,196.5L283,195.5L283,194.5L284,193.5L285,192.5L285,191.5L286,190.5L287,189.5L287,188.5L288,187.5L288,186.5L288,185.5L289,185.5L289,184.5L289,183.5L290,182.5L290,181.5L290,180.5L290,179.5L290,178.5L290,177.5L290,176.5L290,175.5L290,174.5L290,173.5L289,173.5L288,173.5L288,174.5L287,174.5L286,175.5L286,176.5L285,177.5L284,178.5L283,179.5L282,180.5L281,181.5L280,182.5L280,183.5L279,184.5L278,185.5L277,186.5L277,187.5L276,188.5L275,189.5L275,190.5L274,191.5L274,192.5L273,193.5L273,194.5L272,195.5L271,196.5L271,197.5L270,197.5L270,198.5L269,199.5L269,200.5L268,201.5L267,202.5L267,203.5L266,204.5L265,206.5L265,207.5L264,208.5L263,209.5L263,210.5L263,211.5L262,212.5L261,213.5L261,214.5L261,215.5L260,216.5L260,217.5L259,218.5L259,219.5L259,220.5L259,221.5L258,222.5L258,223.5L258,224.5L257,225.5L257,226.5L257,227.5L257,228.5L256,229.5L256,230.5L256,231.5L256,232.5L256,233.5L256,234.5L255,235.5L255,236.5L255,237.5L255,238.5L255,239.5L255,240.5L255,241.5L255,242.5L255,243.5L256,243.5L256,244.5L256,245.5L257,245.5L257,246.5L258,247.5L258,248.5L259,248.5L260,249.5L260,250.5L261,250.5L262,251.5L263,252.5L264,252.5L265,253.5L266,253.5L267,254.5L268,254.5L269,254.5L270,254.5L271,255.5L272,255.5L273,255.5L274,254.5L276,254.5L277,253.5L278,253.5L280,252.5L281,251.5L283,250.5L285,249.5L287,248.5L288,247.5L290,245.5L292,243.5L295,241.5L297,239.5L300,236.5L303,234.5L305,231.5L306,230.5" stroke-width="11.597826086956522" stroke-linecap="round" stroke-linejoin="round" stroke="#ffffff" fill="none" class="line-0">

</path><path d="M316,220.5L316,219.5L316,218.5L317,218.5L318,216.5L320,214.5L324,211.5L328,207.5L332,203.5L337,197.5L341,192.5L346,186.5L351,180.5L356,174.5L360,168.5L364,162.5L368,157.5L371,151.5L374,145.5L377,139.5L380,133.5L382,128.5L384,123.5L386,119.5L387,115.5L388,112.5L388,109.5L388,106.5L389,104.5L389,102.5L390,99.5L390,98.5L391,97.5L391,96.5L390,96.5L389,97.5L388,98.5L387,99.5L385,100.5L384,102.5L383,104.5L381,106.5L380,108.5L378,111.5L376,114.5L374,117.5L371,121.5L368,126.5L365,130.5L361,135.5L358,139.5L355,143.5L353,147.5L350,151.5L349,155.5L347,159.5L345,163.5L343,167.5L342,170.5L340,174.5L338,178.5L337,181.5L335,185.5L334,189.5L333,192.5L332,195.5L331,199.5L329,202.5L328,206.5L327,210.5L326,214.5L324,217.5L323,221.5L322,224.5L322,227.5L322,230.5L322,233.5L322,237.5L323,240.5L324,243.5L325,247.5L326,249.5L328,251.5L330,253.5L332,253.5L335,253.5L340,252.5L344,249.5L349,246.5L355,242.5L361,238.5L368,233.5L371,230.5" stroke-width="11.597826086956522" stroke-linecap="round" stroke-linejoin="round" stroke="#ffffff" fill="none" class="line-1">

</path><path d="M386,215.5L387,214.5L390,212.5L392,210.5L393,209.5L399,205.5L403,201.5L406,199.5L414,192.5L420,188.5L426,183.5L432,178.5L438,174.5L443,169.5L447,166.5L451,162.5L454,159.5L456,157.5L457,155.5L458,153.5L459,152.5L459,151.5L458,150.5L457,150.5L456,149.5L454,149.5L452,149.5L450,149.5L448,149.5L446,149.5L444,149.5L442,149.5L440,150.5L439,150.5L437,150.5L436,151.5L435,152.5L434,152.5L433,153.5L431,154.5L430,156.5L428,157.5L426,159.5L424,161.5L422,164.5L419,167.5L417,170.5L414,174.5L412,177.5L410,181.5L408,185.5L407,188.5L405,192.5L405,195.5L404,197.5L404,199.5L404,201.5L404,203.5L405,205.5L405,207.5L406,209.5L407,211.5L408,213.5L410,215.5L412,216.5L414,218.5L416,219.5L418,220.5L420,221.5L423,223.5L424,224.5L426,226.5L426,228.5L427,230.5L427,232.5L426,234.5L425,236.5L424,238.5L422,240.5L420,242.5L418,243.5L415,245.5L412,247.5L408,249.5L404,250.5L400,252.5L396,253.5L392,253.5L388,254.5L386,254.5L383,254.5L381,254.5L380,254.5L378,254.5L378,253.5L377,253.5L377,252.5L376,252.5L376,251.5L376,250.5L377,250.5L378,250.5L379,250.5L380,250.5L381,250.5L382,250.5L383,250.5L385,250.5L387,249.5L390,249.5L393,247.5L398,246.5L403,243.5L410,241.5L417,238.5L425,235.5L434,232.5L442,229.5L447,227.5" stroke-width="11.597826086956522" stroke-linecap="round" stroke-linejoin="round" stroke="#ffffff" fill="none" class="line-2">

</path><path d="M459,220.5L460,220.5L462,220.5L464,219.5L467,217.5L471,215.5L475,213.5L479,210.5L483,207.5L487,204.5L491,201.5L495,197.5L499,194.5L503,191.5L507,187.5L511,184.5L515,180.5L518,177.5L522,175.5L524,172.5L527,170.5L529,168.5L531,166.5L533,164.5L534,162.5L536,160.5L537,159.5L537,157.5L538,157.5L538,156.5L538,155.5L539,155.5L539,154.5L539,153.5L538,153.5L538,154.5L537,155.5L536,156.5L535,158.5L533,160.5L532,162.5L529,165.5L527,168.5L525,170.5L523,173.5L521,176.5L520,178.5L518,181.5L516,184.5L515,187.5L513,190.5L511,193.5L510,196.5L509,199.5L507,202.5L506,206.5L504,209.5L503,213.5L501,216.5L500,220.5L498,224.5L496,228.5L494,232.5L492,236.5L490,240.5L488,244.5L486,248.5L484,252.5L482,256.5L480,260.5L478,265.5L476,269.5L474,274.5L472,278.5L470,283.5L468,287.5L465,292.5L463,296.5L461,300.5L459,304.5L458,308.5L456,312.5L454,316.5L452,320.5L451,324.5L449,328.5L447,333.5L445,337.5L443,341.5L442,345.5L440,349.5L438,353.5L436,357.5L435,361.5L433,365.5L431,369.5L430,374.5L428,379.5L426,383.5L424,387.5L423,391.5L421,395.5L419,399.5L418,404.5L416,408.5L414,413.5L412,418.5L410,423.5L408,428.5L407,433.5L405,437.5L403,441.5L401,446.5L400,450.5L398,453.5L396,458.5L394,461.5L392,465.5L389,468.5L387,471.5L385,474.5L382,476.5L379,477.5L377,478.5L374,479.5L371,479.5L369,479.5L366,478.5L365,475.5L363,472.5L360,468.5L359,464.5L358,460.5L357,456.5L356,452.5L356,449.5L356,445.5L357,441.5L358,437.5L359,432.5L360,427.5L362,420.5L364,412.5L367,404.5L370,395.5L374,386.5L377,378.5L381,372.5L384,367.5L387,364.5L389,360.5L392,355.5L394,351.5L396,346.5L399,341.5L402,336.5L405,331.5L408,324.5L411,319.5L414,314.5L417,310.5L419,306.5L422,302.5L425,298.5L428,295.5L431,291.5L434,286.5L438,282.5L442,277.5L446,272.5L450,267.5L454,263.5L457,260.5L460,257.5L463,254.5L467,252.5L470,249.5L473,246.5L476,242.5L479,239.5L483,236.5L486,232.5L489,229.5L492,226.5L495,223.5L498,221.5L501,218.5L503,216.5L506,213.5L509,210.5L513,207.5L515,203.5L518,200.5L521,197.5L524,195.5L527,192.5L530,189.5L533,187.5L536,184.5L539,182.5L541,179.5L544,177.5L547,174.5L549,172.5L551,171.5L553,169.5L555,167.5L557,166.5L558,165.5L559,163.5L561,162.5L562,161.5L563,160.5L564,160.5L564,159.5L565,159.5L564,159.5L564,160.5L563,161.5L563,162.5L562,163.5L561,164.5L560,165.5L558,166.5L557,168.5L555,170.5L553,171.5L551,174.5L549,176.5L545,180.5L543,182.5L542,184.5L540,186.5L538,188.5L537,190.5L535,192.5L533,196.5L532,198.5L530,200.5L529,202.5L528,204.5L527,206.5L527,208.5L526,210.5L525,212.5L524,214.5L524,216.5L523,218.5L523,220.5L523,222.5L522,224.5L522,227.5L522,229.5L521,231.5L521,234.5L521,235.5L521,236.5L522,237.5L523,238.5L524,238.5L524,239.5L525,239.5L526,239.5L527,239.5L528,238.5L529,238.5L530,237.5L531,237.5L532,236.5L533,235.5L535,235.5L536,234.5L537,233.5L539,231.5L540,230.5L542,228.5L546,225.5L548,223.5L549,221.5L551,220.5L552,219.5L555,216.5L557,215.5L558,213.5L559,212.5L561,210.5L562,209.5L563,208.5L564,206.5L565,205.5L566,204.5L568,202.5L569,201.5L571,200.5L572,198.5L574,197.5L575,195.5L576,194.5L577,193.5L579,192.5L580,190.5L581,189.5L582,188.5L584,186.5L585,185.5L586,183.5L588,182.5L589,180.5L590,179.5L591,178.5L592,177.5L593,176.5L594,175.5L595,174.5L596,173.5L598,172.5L598,171.5L599,170.5L600,169.5L601,168.5L601,167.5L602,166.5L602,165.5L603,164.5L603,163.5L604,163.5L604,162.5L605,161.5L604,161.5L604,162.5L603,162.5L602,163.5L601,164.5L600,165.5L599,166.5L597,168.5L596,169.5L594,171.5L593,173.5L591,174.5L589,176.5L587,178.5L586,179.5L584,180.5L583,182.5L581,183.5L580,184.5L579,186.5L578,187.5L577,188.5L575,191.5L574,192.5L573,193.5L572,196.5L570,199.5L568,202.5L567,204.5L566,205.5L565,208.5L564,209.5L563,211.5L563,213.5L561,216.5L561,218.5L560,220.5L559,223.5L558,224.5L558,225.5L558,227.5L558,228.5L557,229.5L557,230.5L557,231.5L557,232.5L557,233.5L557,234.5L558,235.5L558,236.5L558,237.5L559,237.5L559,238.5L560,239.5L561,239.5L563,239.5L564,239.5L565,239.5L567,239.5L569,238.5L574,237.5L579,233.5L586,228.5L588,227.5" stroke-width="11.597826086956522" stroke-linecap="round" stroke-linejoin="round" stroke="#ffffff" fill="none" class="line-3">

</path><path d="M605,206.5L606,205.5L607,204.5L609,203.5L612,202.5L618,197.5L622,195.5L626,192.5L630,189.5L633,186.5L636,183.5L643,177.5L645,175.5L648,172.5L652,169.5L653,168.5L654,167.5L655,166.5L656,165.5L657,164.5L657,163.5L658,163.5L658,162.5L657,162.5L656,161.5L655,161.5L654,161.5L654,162.5L653,162.5L652,163.5L650,165.5L649,166.5L648,167.5L645,170.5L644,171.5L642,172.5L641,174.5L638,177.5L634,180.5L633,181.5L631,183.5L629,185.5L627,187.5L626,188.5L625,190.5L623,193.5L620,195.5L619,197.5L618,198.5L616,201.5L614,203.5L613,204.5L612,206.5L611,209.5L609,211.5L608,214.5L607,217.5L606,221.5L604,224.5L603,226.5L603,228.5L602,230.5L602,232.5L602,233.5L602,234.5L603,235.5L604,236.5L605,237.5L607,238.5L609,238.5L613,238.5L619,235.5L623,232.5L627,229.5L632,225.5L642,217.5L652,210.5L655,209.5" stroke-width="11.597826086956522" stroke-linecap="round" stroke-linejoin="round" stroke="#ffffff" fill="none" class="line-4">

</path><path d="M685,194.5L685,193.5L687,192.5L688,191.5L691,190.5L693,189.5L698,186.5L700,184.5L703,182.5L708,179.5L710,178.5L713,176.5L714,175.5L718,172.5L720,170.5L721,168.5L721,167.5L722,166.5L722,165.5L723,165.5L723,163.5L723,162.5L723,161.5L722,160.5L721,160.5L720,159.5L719,159.5L718,159.5L717,159.5L716,159.5L714,159.5L712,160.5L709,161.5L705,162.5L702,164.5L698,165.5L695,167.5L692,169.5L689,171.5L686,173.5L684,175.5L681,178.5L677,182.5L674,185.5L670,189.5L667,193.5L663,197.5L662,199.5L660,201.5L658,204.5L655,208.5L652,212.5L650,216.5L649,219.5L649,221.5L648,223.5L648,225.5L648,229.5L648,231.5L649,232.5L650,233.5L650,234.5L652,235.5L653,236.5L655,236.5L658,236.5L662,236.5L667,235.5L672,233.5L677,231.5L680,231.5L682,230.5L685,229.5L690,226.5L694,224.5L697,222.5L701,220.5L708,215.5L712,213.5" stroke-width="11.597826086956522" stroke-linecap="round" stroke-linejoin="round" stroke="#ffffff" fill="none" class="line-5">

</path><path d="M722,211.5L722,212.5L723,212.5L724,212.5L725,212.5L729,210.5L732,209.5L735,207.5L739,204.5L747,199.5L755,194.5L762,191.5L769,187.5L775,183.5L778,181.5L781,179.5L784,177.5L788,173.5L790,171.5L791,170.5L792,168.5L794,166.5L794,165.5L795,163.5L796,162.5L797,159.5L797,157.5L797,155.5L796,153.5L795,153.5L795,152.5L794,152.5L792,152.5L791,152.5L789,152.5L786,152.5L783,152.5L781,152.5L779,152.5L777,153.5L773,154.5L771,155.5L767,157.5L765,158.5L762,159.5L761,160.5L757,162.5L755,164.5L752,166.5L751,167.5L749,168.5L748,170.5L744,173.5L743,174.5L739,177.5L736,181.5L735,183.5L733,185.5L732,186.5L729,190.5L728,192.5L726,195.5L724,199.5L723,201.5L722,205.5L721,209.5L721,212.5L721,213.5L721,216.5L722,218.5L723,220.5L724,221.5L724,223.5L726,225.5L727,226.5L729,227.5L731,228.5L732,229.5L735,229.5L737,229.5L739,229.5L742,229.5L745,229.5L747,229.5L751,229.5L754,229.5L758,229.5L760,229.5L765,228.5L769,228.5L772,227.5L776,226.5L781,224.5L788,220.5L796,215.5L802,213.5L812,207.5L818,204.5" stroke-width="11.597826086956522" stroke-linecap="round" stroke-linejoin="round" stroke="#ffffff" fill="none" class="line-6">

</path><path d="M303,143.5L302,143.5L301,142.5L304,140.5L308,138.5L310,137.5L312,136.5L314,135.5L317,134.5L319,134.5L322,135.5L326,136.5L331,137.5L333,138.5L339,140.5L344,143.5L349,146.5L352,148.5L355,150.5L358,151.5L364,153.5L367,154.5L373,156.5L376,157.5L383,158.5L391,158.5L401,155.5L414,149.5" stroke-width="11.597826086956522" stroke-linecap="round" stroke-linejoin="round" stroke="#ffffff" fill="none" class="line-7">

</path><path d="M526,119.5L525,118.5L527,117.5L528,117.5L530,117.5L532,117.5L534,117.5L535,117.5L537,118.5L538,119.5L540,119.5L541,120.5L542,121.5L542,122.5L543,122.5L543,123.5L543,124.5L544,124.5L546,125.5L547,125.5L549,127.5L551,128.5L552,129.5L553,129.5L555,131.5L556,131.5L557,131.5" stroke-width="11.597826086956522" stroke-linecap="round" stroke-linejoin="round" stroke="#ffffff" fill="none" class="line-8">

</path><path d="M526 119.5L526 119.5" stroke-width="11.597826086956522" stroke-linecap="round" stroke-linejoin="round" stroke="#ffffff" fill="none" class="line-9">

</path><path d="M657,124.5L656,124.5L655,124.5L654,124.5L654,125.5L654,126.5L654,127.5L654,128.5L654,129.5L655,129.5L655,130.5L655,131.5L656,131.5L656,132.5L656,133.5L656,134.5L656,135.5L656,136.5L656,137.5L656,138.5L656,139.5L657,139.5L657,140.5L657,141.5L658,141.5L658,142.5L659,142.5L660,141.5L661,141.5L661,140.5L661,139.5L661,138.5L661,137.5L661,136.5L661,135.5L661,134.5L660,134.5L660,133.5L659,133.5L659,132.5L658,132.5L658,131.5L658,130.5L658,129.5L657,129.5L657,128.5" stroke-width="11.597826086956522" stroke-linecap="round" stroke-linejoin="round" stroke="#ffffff" fill="none" class="line-10">

</path>
</g><mask id="brush">
<rect x="0" y="0" width="100%" height="100%" fill="black">

</rect><path d="M226.99,142.49L231.22,137.53L232.02,136.49L234.25,135.01L236.86,132.79L238.96,131.42L241.43,129.29L242.48,126.71L246.06,123.59L248.84,121.28L250.99,118.47L254.34,115.75L254.98,113.64L258.96,110.22L259.36,108.38L261.86,105.36L264.68,102.18L266.49,100.03L267.52,97.85L269.37,94.72L272.05,91.58L273.05,89.54L273.47,88.23L275.79,84.44L275.85,83.10L277.14,80.07L277.96,78.39L277.21,79.13L278.79,74.31L277.99,74.50L277.91,72.50L277.84,70.50L277.79,69.50L277.72,67.50L278.37,67.23L278.34,68.70L276.64,63.90L276.48,65.42L276.21,64.78L277.02,63.76L276.36,65.46L272.31,60.50L272.94,61.76L272.96,62.26L268.92,58.79L269.48,59.47L270.86,60.32L265.36,58.88L266.00,59.35L263.00,59.33L261.00,59.37L258.00,59.35L256.00,59.38L253.00,59.36L250.00,59.34L248.00,59.38L245.00,59.36L242.42,59.24L243.95,59.44L239.65,60.91L234.14,61.30L233.78,61.84L230.77,62.81L227.76,63.79L224.77,64.76L221.83,66.14L219.64,67.61L214.70,69.55L211.75,70.96L208.88,73.01L205.51,75.26L202.50,77.26L197.59,79.66L195.44,81.17L192.44,83.16L189.44,85.16L186.44,87.16L183.44,89.16L180.44,91.16L177.46,93.14L175.59,95.13L171.41,98.11L168.58,99.94L168.60,100.93L164.56,105.10L160.41,108.05L158.55,110.05L155.51,113.01L153.54,115.08L149.53,117.88L149.39,119.04L144.55,122.90L144.57,123.88L142.56,126.91L138.57,131.03L137.52,132.89L133.52,137.02L131.57,139.07L128.61,141.93L127.86,144.07L123.47,148.93L122.44,150.79L120.45,153.80L118.45,156.84L114.49,160.95L113.44,162.83L110.73,165.71L111.46,166.00L108.97,170.99L106.50,174.82L104.92,177.95L104.39,179.96L103.43,182.98L102.47,186.00L101.21,188.68L102.02,187.63L100.68,192.92L101.05,192.88L99.43,197.78L100.14,197.89L98.51,202.82L99.35,201.50L99.41,203.50L99.47,205.50L99.52,207.50L99.57,209.50L99.62,211.50L99.67,213.50L99.71,215.50L99.76,216.50L99.70,218.08L99.99,216.97L100.86,222.50L100.91,223.50L100.84,225.08L101.11,223.92L101.22,227.64L101.16,225.98L103.06,232.50L102.31,231.62L101.54,228.17L104.28,232.84L104.39,235.60L104.30,233.89L106.14,239.06L106.18,237.24L105.56,235.94L107.38,238.84L108.54,242.57L107.63,238.87L108.65,239.85L110.47,242.79L111.64,246.54L110.70,242.80L111.72,243.78L113.55,246.74L106.00,242.95L108.98,243.75L114.78,246.72L115.80,247.70L114.82,247.86L113.00,246.67L116.84,248.83L115.01,247.64L120.87,250.63L119.86,250.79L119.01,249.61L122.87,251.78L119.00,249.74L121.00,249.75L123.00,249.76L125.00,249.76L127.00,249.77L129.00,249.78L132.00,249.86L134.00,249.86L136.55,250.04L135.18,249.85L142.00,249.01L143.85,249.03L144.02,248.57L147.20,247.61L152.13,247.47L151.08,246.79L157.81,244.76L161.81,243.92L164.12,242.74L168.19,240.89L172.82,238.53L177.41,236.32L181.45,234.41L186.07,231.96L189.50,229.49L195.26,226.27L200.37,223.45L205.46,220.60L210.53,217.74L214.94,214.43L220.07,210.58L226.69,206.53L232.84,202.76L237.49,199.11L244.00,195.00L248.65,191.30L254.21,187.84L259.19,184.80L264.91,182.34L266.79,180.69L269.69,178.53L273.39,175.66L276.14,174.00L276.48,172.98L278.37,170.87L280.26,168.76L281.12,167.77L280.85,167.30L283.01,164.51L283.32,164.92L281.75,167.50L289.00,173.82L286.47,173.27L283.25,171.44L284.43,172.42L281.17,170.57L283.64,172.14L278.87,170.58L280.00,171.40L278.62,171.37L273.79,169.78L275.00,170.61L273.00,170.68L271.00,170.75L268.00,170.77L266.14,170.81L265.65,171.41L264.74,172.02L260.66,173.47L257.67,174.47L256.78,175.06L254.81,176.10L252.68,177.54L249.81,179.10L247.72,180.52L247.00,181.50L244.99,183.53L240.72,186.52L238.90,188.40L235.84,191.32L233.44,194.33L230.30,198.23L227.18,202.14L224.07,206.06L220.37,209.83L219.33,211.72L217.36,214.74L215.38,217.75L213.39,220.79L210.57,223.89L211.02,224.01L210.10,226.05L209.16,228.08L208.32,229.73L209.15,228.50L209.22,230.50L209.19,231.89L207.55,236.83L208.39,234.50L208.45,236.50L208.50,237.50L208.55,238.50L208.60,239.50L208.64,240.50L208.69,241.50L207.99,240.69L207.96,239.11L209.83,244.50L209.87,245.50L209.14,244.65L209.10,243.02L210.22,246.64L210.16,244.98L203.00,241.43L213.10,250.50L212.36,249.61L212.27,247.91L205.00,244.29L215.24,253.50L206.00,245.23L208.93,245.99L212.67,248.10L209.00,246.14L211.95,246.91L215.71,249.03L212.00,247.05L213.00,247.02L214.00,247.00L215.00,246.97L216.00,246.95L215.02,247.74L213.20,247.89L219.00,245.88L218.00,246.68L216.17,246.84L222.00,244.81L220.99,245.63L217.12,246.62L220.13,244.78L225.54,242.85L223.52,242.88L222.10,243.60L223.22,242.50L227.64,239.78L229.52,238.89L228.11,239.61L229.10,238.60L232.12,236.75L236.98,235.58L233.09,236.59L234.08,235.58L235.07,234.57L236.06,233.56L237.05,232.55L238.04,231.54L239.03,230.53L240.03,229.53L241.02,228.52L242.01,227.51L243.00,226.50L244.00,225.50L244.99,224.49L246.12,223.39L247.55,225.54L245.94,226.45L249.12,220.39L253.45,217.75L252.00,218.50L252.99,217.49L253.89,216.62L253.25,216.95L255.91,213.63L255.27,213.95L258.01,210.51L259.01,209.51L260.00,208.50L260.99,207.49L261.99,206.49L262.88,205.61L262.04,206.54L261.94,207.45L264.98,201.48L265.98,200.48L266.97,199.47L267.97,198.47L268.96,197.46L269.95,196.45L270.85,195.58L270.00,196.52L269.90,197.44L272.96,191.46L273.95,190.45L274.95,189.45L275.08,190.51L273.86,192.43L276.93,186.43L277.06,187.49L275.84,189.42L278.91,183.41L279.04,184.48L277.81,186.42L280.03,182.47L277.93,186.50L288.00,175.42L278.91,185.50L278.90,184.50L279.75,181.41L281.98,177.44L279.87,181.50L279.86,180.50L279.85,179.50L279.84,178.50L279.83,177.50L279.82,176.50L279.81,175.50L279.80,174.50L290.00,183.71L289.00,183.72L298.23,173.50L288.00,184.74L289.12,183.87L294.12,180.62L295.37,178.62L292.25,184.75L291.25,185.75L290.24,186.74L289.24,187.74L288.24,188.74L288.12,187.62L289.37,185.62L286.24,191.74L285.24,192.74L285.12,191.62L286.37,189.62L283.25,195.75L283.12,194.62L284.37,192.62L282.13,196.63L283.38,194.62L281.13,198.63L282.38,196.63L279.26,202.76L279.14,201.63L271.00,207.77L280.28,197.50L279.40,200.63L277.15,204.64L278.41,202.63L275.27,208.77L275.15,207.64L276.41,205.63L273.37,211.64L274.27,210.59L274.37,209.62L271.24,215.74L271.12,214.62L273.25,210.50L272.38,213.62L269.25,219.75L269.13,218.63L271.26,214.50L270.39,217.63L268.14,221.63L269.39,219.63L267.14,223.63L269.28,219.50L269.28,220.50L268.41,223.63L266.15,227.64L268.29,223.50L267.41,226.63L265.15,230.64L267.28,226.50L267.28,227.50L266.40,230.63L264.14,234.63L266.26,230.50L266.26,231.50L266.25,232.50L266.24,233.50L265.36,236.62L263.09,240.60L265.20,236.50L265.18,237.50L265.17,238.50L265.15,239.50L265.13,240.50L265.11,241.50L265.09,242.50L255.00,233.44L266.03,243.50L266.00,244.50L256.00,235.53L266.94,245.50L266.05,244.45L265.80,242.58L258.00,238.71L261.02,239.59L267.67,244.67L260.00,240.88L262.98,241.76L268.70,244.80L267.69,245.07L265.93,243.99L269.60,246.20L267.89,245.15L271.51,247.35L268.00,245.57L269.00,245.65L271.82,246.49L275.31,248.66L272.00,246.97L271.25,247.79L269.86,247.93L274.34,247.16L273.07,247.27L277.63,245.85L276.59,245.94L275.99,246.33L279.93,244.36L282.10,243.69L284.19,243.10L283.85,243.35L286.24,241.74L288.66,240.14L292.81,238.24L294.67,237.17L298.41,234.90L302.23,233.41L305.99,230.49L306.00,230.50L306.01,230.51L303.77,235.59L301.59,238.10L299.33,241.83L297.19,244.76L295.34,246.86L293.76,249.26L292.15,251.65L289.81,253.90L287.90,255.31L286.07,256.64L286.01,256.67L283.41,259.06L278.37,261.15L280.93,259.73L277.66,261.84L278.14,261.07L274.75,263.21L272.00,264.03L266.69,262.34L268.18,262.51L269.00,263.35L268.00,263.43L262.49,261.65L264.11,261.85L260.40,260.80L262.07,261.01L258.31,259.93L255.30,258.20L259.02,259.24L260.00,260.12L252.33,254.33L256.98,257.41L258.00,258.29L250.20,252.42L247.95,248.55L247.06,245.50L256.00,255.47L246.00,244.50L245.97,243.50L255.00,253.56L244.91,242.50L244.89,241.50L244.87,240.50L244.85,239.50L244.83,238.50L244.82,237.50L244.80,236.50L246.91,230.40L246.64,232.38L245.76,233.50L245.75,232.50L245.74,231.50L245.74,230.50L247.86,224.37L247.60,226.37L246.72,227.50L246.72,226.50L248.85,220.36L248.59,222.37L247.71,223.50L249.85,217.36L249.59,219.37L248.72,220.50L248.72,219.50L250.86,213.37L250.61,215.37L251.86,211.37L251.61,213.37L250.74,214.50L252.87,208.37L254.75,205.25L253.62,209.38L252.75,210.50L254.88,204.38L256.76,201.26L255.63,205.38L255.73,202.41L258.63,197.36L257.59,201.37L258.85,197.36L260.73,194.23L259.59,198.37L260.85,194.36L260.60,196.37L259.72,197.50L271.00,187.23L262.86,191.37L264.74,188.24L263.62,192.37L264.87,188.37L264.62,190.38L265.87,186.37L265.63,188.38L266.88,184.38L268.75,181.25L267.63,185.38L268.88,181.38L270.76,178.26L271.76,177.26L270.63,181.38L271.88,177.38L273.76,174.26L274.76,173.26L275.76,172.26L276.75,171.25L277.75,170.25L276.63,174.38L277.88,170.38L284.88,165.13L288.00,164.26L277.77,173.50L289.00,163.28L290.00,163.29L300.20,174.50L300.19,175.50L300.18,176.50L300.17,177.50L300.16,178.50L300.15,179.50L300.14,180.50L300.13,181.50L298.02,187.56L298.25,185.59L299.10,184.50L299.09,185.50L288.00,195.58L298.07,186.50L295.97,192.53L296.19,190.58L294.96,194.52L293.09,197.59L294.16,193.58L292.94,197.51L291.07,200.57L292.14,196.57L290.92,200.49L289.05,203.55L288.05,204.55L287.04,205.54L288.10,201.56L288.00,204.48L285.15,209.42L284.05,210.55L283.04,211.54L282.03,212.53L281.03,213.53L280.02,214.52L279.02,215.52L280.06,211.55L279.96,214.46L277.12,219.39L276.01,220.51L275.01,221.51L274.00,222.50L272.99,223.49L271.99,224.49L272.73,223.05L270.09,227.37L270.75,226.05L268.11,230.38L267.01,231.51L266.00,232.50L262.55,235.25L262.88,234.61L264.06,230.55L262.45,233.46L259.88,237.61L259.01,238.51L258.00,239.50L257.00,240.50L255.99,241.49L254.98,242.48L253.97,243.47L252.97,244.47L251.96,245.46L250.95,246.45L249.94,247.44L248.93,248.43L247.92,249.42L246.91,250.41L241.02,253.42L241.88,252.25L242.90,252.40L241.89,253.39L238.48,256.11L236.36,257.22L236.78,256.50L235.90,257.40L232.48,260.12L226.46,262.15L229.87,260.22L230.88,260.38L225.01,263.37L222.00,264.19L225.83,262.16L222.00,264.32L219.00,265.12L222.80,263.11L218.98,265.26L216.00,266.05L215.00,266.03L214.00,266.00L213.00,265.98L212.00,265.95L206.29,263.97L208.05,264.09L209.00,264.86L203.33,262.90L205.07,263.01L206.00,263.77L196.76,253.50L205.00,262.71L197.73,257.09L195.64,253.39L194.90,250.50L203.00,259.57L195.84,254.02L193.78,250.36L194.90,251.98L192.86,248.35L192.13,245.50L192.17,244.50L194.04,247.89L192.01,244.31L191.31,241.50L191.36,240.50L191.40,239.50L191.45,238.50L191.50,237.50L191.55,236.50L191.61,234.50L192.45,230.17L192.81,231.11L192.78,230.50L192.85,228.50L193.68,223.27L194.84,220.92L195.90,218.95L196.98,216.99L199.43,213.11L200.61,212.21L202.62,209.25L204.64,206.26L206.67,203.28L209.63,199.17L211.93,196.94L214.82,192.86L217.70,188.77L220.56,184.67L224.16,179.68L227.10,176.60L231.28,172.48L233.01,171.47L235.00,169.50L238.28,166.48L242.19,163.90L243.32,163.46L247.19,160.90L249.22,159.94L252.33,158.53L255.34,157.53L257.26,156.98L260.35,155.59L265.86,154.19L268.00,154.23L271.00,154.25L273.00,154.32L275.00,154.39L280.21,155.22L279.38,155.63L280.00,155.60L285.13,156.42L284.36,156.86L288.83,158.43L287.57,158.58L290.75,159.56L289.53,159.73L289.00,159.18L296.25,167.50L294.68,172.08L292.99,174.49L293.15,173.70L290.88,177.23L289.74,178.24L287.63,180.13L285.52,182.02L281.86,185.00L280.61,185.34L276.31,188.47L273.21,190.31L269.09,192.66L264.81,194.20L259.79,197.16L255.35,199.70L250.00,204.00L244.51,207.89L239.16,212.24L233.31,216.47L227.93,220.42L223.06,224.57L217.47,229.26L212.54,232.40L207.63,235.55L202.74,238.73L198.50,241.51L193.93,245.04L188.55,248.59L184.59,250.68L181.18,252.47L175.81,256.11L171.88,258.26L166.19,261.08L162.19,262.24L160.92,262.21L153.87,265.53L152.80,265.39L149.98,266.43L144.15,267.97L142.00,267.99L142.82,267.15L137.45,268.96L134.00,269.14L132.00,269.14L129.00,269.22L127.00,269.23L125.00,269.24L123.00,269.24L121.00,269.25L119.00,269.26L113.13,267.22L114.99,267.39L110.14,266.21L107.13,264.37L110.99,265.36L107.16,264.17L109.00,264.33L105.18,263.14L102.20,261.30L101.22,260.28L105.02,261.25L106.00,262.05L98.45,256.26L98.28,257.22L97.30,256.20L94.36,250.46L95.53,252.21L95.35,253.15L94.37,252.13L91.46,246.43L92.62,248.16L92.44,249.06L89.82,245.76L87.86,239.94L89.70,243.11L87.61,239.40L87.72,240.16L88.46,240.83L85.69,235.38L84.94,232.50L86.84,235.02L84.78,231.36L84.89,231.08L83.16,225.92L83.09,223.50L83.14,222.50L84.01,224.03L82.30,218.92L82.24,216.50L82.29,215.50L82.33,213.50L82.38,211.50L82.43,209.50L82.48,207.50L82.53,205.50L82.59,203.50L82.65,201.50L83.49,196.18L83.86,197.11L84.57,191.22L84.95,192.12L85.32,188.08L85.98,187.37L86.79,182.32L87.53,181.00L88.57,178.02L89.61,175.04L91.08,171.05L93.50,166.18L95.03,164.01L96.54,161.00L99.27,155.29L100.56,154.17L103.51,150.05L105.55,148.16L107.55,145.20L109.56,142.21L112.53,138.07L114.14,136.93L117.39,131.07L120.43,127.93L122.48,125.98L124.48,124.11L127.43,119.97L129.44,118.09L131.43,115.12L135.45,110.10L136.61,109.96L140.47,105.12L142.46,103.92L144.49,101.99L147.45,98.95L151.59,94.95L153.44,93.90L155.40,92.07L159.42,87.06L162.59,84.89L164.41,83.87L168.54,79.86L171.56,77.84L174.56,75.84L177.56,73.84L180.56,71.84L183.56,69.84L186.56,67.83L190.41,65.34L193.50,63.74L196.49,61.74L199.12,59.99L204.25,56.04L209.30,53.45L210.36,53.39L214.17,50.86L219.23,48.24L222.24,47.21L225.23,46.19L228.22,45.16L233.86,43.70L234.35,44.09L236.05,43.56L241.58,41.76L245.00,41.64L248.00,41.62L250.00,41.66L253.00,41.64L256.00,41.62L258.00,41.65L261.00,41.63L263.00,41.67L266.00,41.65L270.64,42.12L271.14,42.68L276.52,43.53L281.08,46.21L281.04,46.74L285.06,49.24L287.69,52.50L285.64,51.54L288.98,55.24L289.79,56.22L291.52,57.58L293.36,63.10L291.66,60.30L293.63,63.77L294.28,67.50L294.21,69.50L294.16,70.50L294.09,72.50L294.01,74.50L293.21,80.69L292.79,79.87L292.04,84.61L290.86,86.93L290.15,87.90L288.21,92.56L286.53,94.77L284.95,97.46L281.95,101.42L280.63,102.28L278.48,105.15L275.51,108.97L273.32,110.82L270.14,113.64L268.64,114.62L265.04,118.78L263.02,119.36L259.66,123.25L257.01,124.53L253.16,127.72L249.94,129.41L247.52,130.29L244.57,133.71L241.04,135.58L239.14,136.21L235.75,137.99L233.98,138.51L232.78,139.47L227.01,142.51Z" fill="white">

</path><path d="M315.99,220.49L319.02,213.82L323.02,210.20L326.52,206.02L330.19,201.69L334.76,195.63L338.41,190.43L343.28,184.23L348.14,178.12L353.04,172.03L356.64,166.26L360.53,160.18L364.57,154.78L366.99,149.49L369.93,143.47L372.88,137.44L375.84,131.42L377.50,126.70L379.34,121.63L381.30,117.18L381.70,114.17L382.59,110.79L382.11,109.50L381.98,106.21L383.33,102.00L382.60,102.40L383.75,97.53L383.91,97.12L385.62,94.11L391.00,103.37L391.44,102.86L394.00,102.50L393.07,103.57L392.05,104.71L388.96,106.45L390.70,105.85L389.72,108.00L386.50,111.82L386.94,111.98L384.47,115.81L382.49,118.82L380.50,121.83L377.14,126.10L374.35,130.31L370.85,134.89L366.46,139.87L363.55,143.67L360.53,147.62L359.18,150.61L355.60,155.44L355.72,157.22L353.23,162.61L351.24,166.62L349.26,170.62L348.74,172.76L346.36,177.68L344.36,181.67L343.83,183.79L341.45,188.68L341.01,191.25L339.94,194.81L339.02,197.84L338.13,201.43L335.27,206.50L335.24,208.31L334.24,212.31L333.17,216.44L330.29,221.52L330.24,223.31L329.14,226.75L329.55,227.50L329.57,230.50L329.58,233.50L329.45,237.38L330.05,238.15L330.99,241.17L331.93,245.73L332.30,246.22L332.97,246.53L333.45,248.03L332.00,246.67L334.97,246.87L338.57,246.68L340.74,245.14L346.63,242.55L353.11,239.67L359.78,236.67L367.59,232.93L370.99,230.49L371.00,230.50L371.01,230.51L368.41,234.07L362.22,240.33L356.89,245.33L351.37,250.45L347.26,253.86L341.43,258.32L335.03,260.13L332.00,260.33L326.55,258.97L323.03,256.47L319.70,252.78L318.07,249.27L317.01,245.83L315.95,242.85L314.55,237.62L314.42,233.50L314.43,230.50L314.45,227.50L314.86,222.25L315.76,219.69L317.71,213.48L318.83,212.56L319.76,208.69L320.76,204.69L322.73,198.50L323.87,197.57L324.98,193.16L326.06,190.19L326.99,187.75L328.55,182.32L330.17,179.21L331.64,175.33L333.64,171.32L335.26,168.24L336.74,164.38L338.76,160.38L340.77,156.39L342.28,153.78L344.40,147.56L346.82,144.39L349.47,139.38L352.45,135.33L355.54,131.13L359.15,126.11L361.65,122.69L364.86,116.90L367.50,113.17L369.51,110.18L371.53,107.19L373.06,105.02L375.50,101.18L376.28,101.00L377.30,99.15L381.04,94.55L381.95,94.29L382.93,93.43L384.00,92.50L388.56,90.14L391.00,89.63L396.38,100.89L396.09,99.88L396.25,101.47L395.40,102.60L394.67,107.00L394.02,106.79L393.89,109.50L393.41,114.21L392.30,116.83L390.70,121.82L388.66,125.37L386.50,130.30L384.16,135.58L381.12,141.56L378.07,147.53L375.01,153.51L371.43,160.22L367.47,164.82L363.36,170.74L358.96,176.97L353.86,182.88L348.72,188.77L343.59,194.57L339.24,199.37L333.81,205.31L329.48,208.98L324.98,212.80L320.98,215.18L316.01,220.51Z" fill="white">

</path><path d="M385.99,215.49L391.41,209.79L392.24,208.74L398.13,204.21L401.58,200.07L404.67,197.51L412.42,190.69L418.46,186.19L424.04,181.15L429.89,175.97L436.01,171.54L440.32,166.81L444.49,163.16L447.85,159.35L450.63,156.13L452.38,154.00L452.28,153.14L453.14,150.97L454.52,149.67L453.72,152.70L455.04,155.19L455.75,156.01L452.92,154.39L454.00,155.83L452.00,155.99L450.00,156.13L448.00,156.28L446.00,156.41L444.00,156.54L442.34,156.58L442.91,157.09L439.00,157.85L438.55,157.32L441.34,156.84L438.82,158.56L435.60,159.55L438.41,159.09L435.23,160.84L436.40,160.77L431.70,164.60L431.71,165.21L429.77,167.22L428.73,169.02L424.70,173.16L423.68,174.96L420.29,179.22L418.56,181.86L416.97,184.99L414.91,188.94L414.37,190.97L411.98,195.58L412.69,195.87L411.11,200.64L411.94,199.50L412.02,201.50L412.00,203.12L412.39,202.24L413.14,207.11L413.41,205.79L414.46,207.77L415.43,209.63L415.84,209.46L415.90,209.00L419.89,212.41L419.82,211.86L421.84,212.82L423.86,213.79L427.78,216.39L430.10,218.40L432.85,222.18L434.58,228.09L434.89,227.01L435.66,232.91L433.86,238.43L432.89,240.44L431.83,242.58L428.25,246.75L426.13,248.83L421.97,251.43L419.88,252.81L416.83,254.76L411.78,257.17L406.09,258.68L403.67,259.95L397.94,261.49L392.06,261.66L389.90,262.36L386.00,262.66L383.00,262.68L381.00,262.74L380.00,262.79L369.67,254.50L378.00,261.87L368.59,253.50L377.00,260.95L367.51,252.50L367.48,251.50L376.00,241.95L377.00,241.92L378.00,241.89L379.00,241.87L380.00,241.85L381.00,241.83L382.00,241.81L383.00,241.80L384.59,241.93L383.55,241.70L389.21,241.26L388.65,240.55L396.35,239.00L399.46,237.48L408.38,235.84L415.14,234.15L423.82,232.34L433.40,230.70L441.74,228.81L447.00,227.49L447.00,227.50L447.00,227.51L442.26,230.19L434.60,234.30L426.18,238.66L418.86,242.85L411.62,247.16L406.54,249.52L399.65,254.00L397.35,254.45L390.79,257.74L390.45,257.30L385.41,259.07L383.00,259.20L382.00,259.19L381.00,259.17L380.00,259.15L379.00,259.13L378.00,259.11L377.00,259.08L376.00,259.05L384.52,251.50L384.49,252.50L377.00,244.05L385.41,253.50L378.00,245.13L386.33,254.50L380.00,246.21L381.00,246.26L383.00,246.32L386.00,246.34L386.10,246.64L391.94,245.34L394.06,245.51L396.33,245.05L401.91,242.32L404.22,241.83L407.17,240.24L410.12,238.19L414.03,235.57L413.87,236.17L415.75,234.25L416.17,234.42L417.11,232.56L418.14,230.57L418.34,232.09L419.11,233.99L417.42,228.91L419.15,230.82L417.90,230.60L418.22,230.61L416.14,229.21L414.16,228.18L412.18,227.14L408.11,224.59L408.10,224.00L404.16,221.54L400.57,217.37L399.54,215.23L398.59,213.21L396.86,207.89L397.61,208.76L396.00,203.88L395.98,201.50L396.06,199.50L396.89,194.36L397.31,195.13L398.02,189.42L399.63,186.03L401.09,182.06L403.03,178.01L405.44,173.14L407.71,169.78L410.32,166.04L413.30,161.84L415.27,159.98L418.23,155.78L420.29,153.79L424.30,150.40L423.60,152.23L426.77,148.16L427.59,147.91L432.40,145.45L431.18,146.44L430.66,146.16L435.45,143.68L439.00,143.15L437.09,143.91L441.66,142.42L444.00,142.46L446.00,142.59L448.00,142.72L450.00,142.87L452.00,143.01L454.00,143.17L459.08,144.61L458.25,144.99L460.96,145.81L464.28,150.30L463.48,155.33L462.86,156.03L461.72,157.86L459.62,161.00L457.37,162.87L454.15,165.65L449.51,169.84L445.68,172.19L439.99,177.46L434.11,181.03L427.96,185.85L421.54,190.81L415.58,194.31L407.33,201.49L404.42,202.93L399.87,206.79L393.76,210.26L392.59,211.21L386.01,215.51Z" fill="white">

</path><path d="M459.00,220.49L466.54,216.28L470.23,213.95L474.03,211.57L477.43,208.41L481.17,205.06L484.91,201.71L488.66,198.39L492.00,194.49L496.24,190.81L500.04,187.56L503.34,183.83L507.73,180.15L511.03,176.53L513.94,173.31L518.99,170.36L518.93,168.90L523.41,165.17L524.33,163.83L526.23,161.73L528.07,159.72L527.79,159.27L530.96,155.46L531.26,155.88L537.00,150.15L530.57,157.50L530.50,156.50L538.00,147.93L531.35,155.50L531.28,154.50L539.00,161.28L545.85,153.50L545.24,156.14L542.65,161.15L541.78,162.10L542.20,162.25L538.86,166.17L539.29,166.29L534.78,171.24L533.75,173.04L530.80,176.26L529.79,178.03L527.78,181.01L527.34,182.18L524.82,186.05L522.84,188.97L522.74,190.16L519.81,195.04L517.83,197.96L517.76,199.09L516.75,202.16L513.88,206.89L513.81,208.62L510.81,213.85L510.74,215.60L507.75,220.81L507.73,222.48L505.06,228.03L502.99,231.99L500.92,235.96L498.86,239.93L496.81,243.91L494.77,247.88L492.72,251.86L490.69,255.84L488.65,259.83L486.62,263.81L484.73,268.20L482.48,272.74L480.60,277.14L478.36,281.68L476.49,286.10L474.27,290.64L470.86,296.02L469.14,299.57L467.17,303.58L465.20,307.56L464.75,310.23L462.25,315.63L460.27,319.63L458.29,323.60L457.84,326.25L455.32,331.66L453.46,336.09L451.24,340.62L449.27,344.59L448.82,347.24L446.30,352.65L444.31,356.66L442.33,360.62L441.88,363.26L439.36,368.68L437.38,372.62L436.89,375.90L434.43,382.08L432.22,386.61L430.25,390.58L429.80,393.24L427.29,398.64L425.32,402.59L424.82,405.93L422.25,411.62L420.40,416.06L418.32,421.03L416.25,426.00L414.19,430.96L413.49,434.86L410.99,440.49L409.03,444.51L407.20,448.97L406.50,452.26L403.72,457.28L402.28,461.04L399.73,465.31L398.11,468.68L393.93,473.39L392.86,475.40L390.77,478.60L385.93,482.52L381.31,484.41L380.30,485.12L376.24,486.61L371.00,487.06L368.88,487.13L361.61,483.86L357.66,478.02L356.52,476.82L353.78,472.87L351.60,466.35L350.61,462.35L349.63,458.34L348.63,454.29L348.34,449.50L348.35,445.44L349.59,439.65L350.61,435.65L351.66,431.03L352.78,426.05L355.42,418.62L358.03,411.00L361.82,402.56L365.49,393.99L370.29,384.85L373.40,377.13L377.72,370.31L380.42,365.32L383.76,361.37L384.72,358.36L387.78,352.97L389.38,349.19L391.09,344.52L394.40,338.74L397.36,333.71L400.31,328.69L403.23,322.45L406.48,316.79L409.42,311.75L412.60,307.22L413.94,303.95L417.38,299.03L420.31,294.97L423.74,291.25L426.13,287.85L428.84,283.35L433.73,278.24L437.39,273.81L441.47,268.88L445.55,263.93L449.94,259.44L452.83,256.33L455.72,253.22L458.71,250.07L464.11,246.94L465.48,244.98L468.41,241.92L470.81,238.59L474.35,234.84L479.00,231.28L480.74,228.54L484.29,224.79L487.24,221.74L490.21,218.68L494.15,215.78L496.09,213.59L498.00,211.50L500.98,208.48L503.97,205.46L508.54,202.12L508.75,200.25L512.98,195.48L515.99,192.45L519.99,189.53L521.90,187.40L524.91,184.37L528.93,181.45L530.86,179.32L534.76,176.53L534.99,175.23L539.84,171.31L541.73,169.23L543.77,167.10L547.48,164.74L547.55,164.05L549.60,161.92L553.38,159.54L552.31,159.99L552.54,159.20L557.27,155.34L556.23,155.73L558.89,153.98L555.72,160.50L564.00,151.16L556.61,159.50L556.85,157.49L557.57,155.60L558.72,153.93L560.23,152.59L562.02,151.65L563.99,151.17L566.01,151.17L567.98,151.65L569.77,152.59L571.28,153.93L572.43,155.60L573.15,157.49L573.39,159.50L572.39,159.50L571.72,162.25L569.74,165.75L570.82,164.27L568.09,169.59L567.12,170.62L566.04,171.74L562.69,173.54L564.77,172.54L561.09,176.79L557.39,178.98L558.25,179.37L555.18,182.68L550.92,186.42L549.02,188.32L549.47,188.39L545.99,192.49L544.08,194.39L544.55,194.43L541.13,198.43L540.51,200.26L539.48,202.39L536.07,206.38L536.62,206.31L535.66,208.33L534.79,209.94L535.56,208.91L533.77,214.39L532.80,216.40L531.93,218.00L532.70,216.92L530.99,222.03L531.87,220.50L531.80,222.92L530.08,228.07L530.90,227.50L530.83,229.92L529.11,235.08L529.93,234.50L529.97,235.50L529.24,234.63L528.40,231.10L527.54,231.30L533.12,238.50L524.00,230.34L525.00,230.31L526.00,230.27L525.08,231.04L523.36,231.14L527.07,229.98L525.33,230.09L529.06,228.93L525.35,229.85L528.28,228.02L533.05,226.87L529.31,227.81L530.29,226.79L532.32,224.82L533.31,223.81L535.35,221.83L540.54,218.24L541.50,217.21L541.69,216.63L546.81,212.45L545.54,213.04L548.79,210.08L552.18,208.28L550.04,209.36L552.61,206.11L554.62,204.12L555.60,203.10L556.48,202.19L555.94,202.31L558.53,199.03L559.51,198.01L561.53,196.03L562.63,194.92L566.07,193.10L564.59,193.56L569.06,190.08L566.84,191.25L569.46,187.96L570.56,186.85L574.02,185.02L571.78,186.22L574.41,182.91L575.39,181.89L577.42,179.92L578.31,179.02L578.48,178.49L582.99,174.98L580.73,176.20L583.37,172.87L584.35,171.85L585.34,170.84L586.32,169.82L587.30,168.80L588.28,167.78L589.39,166.68L590.84,168.69L589.28,169.52L592.24,163.74L593.22,162.72L593.39,163.70L592.20,165.51L594.35,161.68L593.16,163.50L595.32,159.66L603.00,153.79L594.27,163.50L595.09,160.48L595.24,161.50L595.52,159.16L596.36,156.96L597.69,155.03L599.45,153.47L601.54,152.37L603.82,151.81L606.18,151.81L608.46,152.37L610.55,153.47L612.31,155.03L613.64,156.96L614.48,159.16L614.76,161.50L613.77,161.50L604.00,172.29L605.03,171.47L608.94,170.44L607.95,171.45L606.96,172.46L605.97,173.47L603.92,175.42L602.93,176.43L600.97,178.25L600.81,178.71L595.46,183.07L595.81,183.31L593.77,185.27L592.65,186.37L589.14,188.21L590.70,187.63L585.40,191.96L586.86,191.14L587.46,190.90L584.77,194.27L583.81,195.26L582.84,196.77L580.69,199.19L579.94,199.81L580.85,199.54L577.66,204.60L575.52,207.50L574.96,208.64L572.59,211.49L573.17,211.66L570.33,215.63L570.94,215.01L571.46,214.31L568.26,220.39L569.26,218.89L567.37,224.17L566.37,226.36L564.28,228.46L565.88,225.50L565.74,227.50L565.02,230.09L563.02,233.29L564.52,230.50L564.45,231.50L564.38,232.50L564.30,233.50L563.60,233.01L563.61,231.96L564.99,236.50L558.00,230.61L565.78,237.50L565.10,237.12L563.25,234.34L561.00,233.12L563.00,233.40L564.00,233.54L565.00,233.68L566.74,234.06L566.76,233.91L573.02,233.66L577.43,231.54L588.00,227.49L588.00,227.50L588.00,227.51L580.57,235.46L574.98,241.34L571.24,243.09L567.26,244.94L565.00,245.32L564.00,245.46L563.00,245.60L561.00,245.88L556.75,244.66L552.90,239.88L552.22,237.50L558.00,244.39L551.01,236.50L552.39,239.04L550.40,235.99L549.70,233.50L549.62,232.50L549.55,231.50L549.48,230.50L550.98,225.71L550.98,226.91L550.26,227.50L550.12,225.50L551.72,220.54L551.63,220.64L552.63,216.83L552.74,218.11L553.74,212.61L554.54,212.69L555.06,207.99L557.67,203.37L556.83,205.34L559.41,199.51L559.04,200.36L560.48,197.50L562.34,194.40L563.15,193.46L566.06,187.19L567.31,185.81L567.16,186.23L570.19,181.74L571.23,180.73L570.54,182.10L573.14,177.86L576.60,175.04L575.30,177.37L578.86,172.79L579.35,172.63L580.23,171.73L582.19,169.69L586.54,165.93L585.19,168.29L587.03,164.75L589.07,162.57L590.08,161.58L592.03,159.53L593.04,158.54L594.05,157.55L595.06,156.56L600.97,153.53L604.00,152.71L594.23,161.50L595.24,161.50L595.52,159.16L596.36,156.96L597.69,155.03L599.45,153.47L601.54,152.37L603.82,151.81L606.18,151.81L608.46,152.37L610.55,153.47L612.31,155.03L613.64,156.96L614.48,159.16L614.76,161.50L612.91,164.52L613.73,163.50L603.00,173.21L610.68,169.34L610.84,167.50L609.65,171.32L609.80,169.49L608.61,173.30L606.78,176.28L605.76,177.26L606.72,173.48L605.16,176.31L602.61,180.32L601.72,181.22L600.70,182.20L599.68,183.18L598.66,184.16L597.65,185.15L596.63,186.13L597.27,184.80L593.01,190.02L593.52,188.51L591.69,191.98L590.58,193.08L588.61,195.11L587.59,196.09L588.22,194.78L583.98,199.98L583.44,200.15L582.54,201.04L583.16,199.75L578.94,204.92L579.41,203.44L575.93,207.90L575.37,208.08L574.47,208.97L572.49,210.99L571.47,211.97L572.06,210.69L569.52,214.81L568.40,215.90L567.38,216.88L565.39,218.89L565.96,217.64L561.82,222.72L561.21,222.92L558.46,225.96L555.19,228.55L556.31,226.37L554.50,229.79L551.46,232.76L548.65,235.17L546.69,237.19L545.68,238.18L543.71,240.21L542.69,241.19L536.95,244.13L537.72,242.98L538.65,243.15L532.94,246.07L534.67,244.91L530.93,247.02L532.64,245.86L528.92,247.96L526.00,248.73L525.00,248.69L524.00,248.66L514.88,238.50L518.46,245.70L515.60,243.90L512.76,238.37L512.03,235.50L512.07,234.50L512.89,227.92L513.17,229.08L513.10,227.50L513.92,220.93L514.20,222.08L514.13,220.50L515.01,214.97L515.30,216.08L516.07,211.00L517.20,208.60L518.23,206.61L518.44,208.09L519.21,203.06L520.34,200.67L521.38,198.69L523.93,194.62L524.52,194.61L525.49,192.74L528.87,186.57L529.45,186.57L531.92,182.61L534.01,180.51L534.53,180.61L536.98,176.68L539.08,174.58L542.82,170.32L543.75,169.63L548.61,164.02L548.91,164.21L549.23,164.46L553.31,159.46L553.96,159.26L554.88,158.38L555.91,157.41L555.18,160.73L556.26,157.25L556.28,158.75L555.61,159.50L556.61,159.50L556.85,157.49L557.57,155.60L558.72,153.93L560.23,152.59L562.02,151.65L563.99,151.17L566.01,151.17L567.98,151.65L569.77,152.59L571.28,153.93L572.43,155.60L573.15,157.49L573.39,159.50L564.00,167.84L572.28,160.50L567.11,167.02L567.77,167.27L564.73,169.66L565.46,167.80L563.69,171.01L560.62,173.46L560.40,173.08L558.45,174.95L554.52,178.26L554.23,177.90L552.27,179.77L548.16,183.69L547.01,183.77L543.24,188.47L541.14,189.68L537.07,193.55L535.09,194.63L532.10,197.60L528.01,201.47L526.01,202.55L523.02,205.52L521.25,206.75L517.46,212.88L514.03,215.54L511.02,218.52L508.00,221.50L505.91,223.41L501.85,227.22L499.79,228.32L496.76,231.26L493.71,234.21L491.26,236.46L487.00,241.72L483.65,244.16L481.19,246.41L477.59,251.08L474.52,254.02L469.89,258.06L467.29,258.93L464.28,261.78L461.17,264.67L458.06,267.56L454.45,271.07L450.53,276.12L446.61,281.19L442.27,286.76L439.16,289.65L435.87,295.15L432.26,299.75L429.69,302.03L426.62,305.97L424.06,309.05L421.40,313.78L418.58,317.25L415.52,322.21L412.77,326.55L409.69,334.31L406.64,339.29L403.60,344.26L400.91,348.48L398.62,353.81L396.22,358.03L393.28,362.64L390.24,367.63L387.58,369.68L384.28,374.69L380.60,379.87L377.71,388.15L374.51,397.01L372.18,406.44L369.97,414.00L368.58,422.38L367.22,428.95L366.34,433.97L365.39,439.35L364.41,443.35L363.65,445.56L363.66,449.50L363.37,450.71L364.37,454.66L365.39,458.65L366.40,462.65L366.22,464.13L369.48,468.18L372.34,472.98L370.39,473.14L369.12,471.87L371.00,471.94L371.76,472.39L373.70,471.88L376.69,470.59L378.07,470.48L379.23,470.40L381.14,467.60L384.07,463.61L385.89,462.32L388.27,457.69L389.72,455.96L392.28,449.72L393.50,448.74L394.80,444.03L396.97,438.49L399.01,434.51L400.51,432.14L401.81,426.04L403.75,421.00L405.68,415.97L407.60,410.94L409.75,405.38L411.18,403.07L412.68,396.41L414.71,392.36L416.20,389.76L417.75,384.42L419.78,380.39L421.57,376.92L423.11,373.10L424.62,366.38L426.64,362.32L428.12,359.74L429.67,354.38L431.69,350.34L433.70,346.35L435.18,343.76L436.73,338.41L438.76,334.38L440.54,330.91L442.68,325.34L444.16,322.75L445.71,317.40L447.73,313.37L449.75,309.37L451.25,306.77L452.80,301.44L454.83,297.42L456.86,293.43L459.14,288.98L461.73,284.36L463.51,280.90L465.64,275.32L467.40,271.86L469.52,266.26L471.27,262.80L473.38,257.19L475.35,253.17L477.31,249.16L479.28,245.14L481.23,241.12L483.19,237.09L485.14,233.07L487.08,229.04L489.01,225.01L490.94,220.97L492.27,218.52L494.25,212.19L495.26,211.40L497.19,205.15L498.19,204.38L500.12,198.11L501.25,196.84L502.24,193.91L504.17,189.04L506.19,185.96L507.26,184.84L509.16,180.03L511.18,176.95L512.66,174.82L514.22,171.99L516.21,168.97L519.20,164.74L520.25,163.96L523.22,159.76L524.71,158.71L527.14,154.83L527.80,154.75L530.22,150.90L531.35,149.85L530.76,152.86L530.15,153.50L539.00,145.72L546.72,154.50L546.65,155.50L538.00,163.07L545.50,156.50L545.43,157.50L537.00,164.85L542.74,163.12L541.04,165.54L540.21,165.73L537.93,169.28L535.77,171.27L533.67,173.17L530.59,175.83L529.07,176.10L525.01,180.64L522.06,181.69L518.97,184.47L514.27,188.85L510.66,191.17L505.96,195.44L501.76,198.19L498.00,200.51L493.34,204.61L489.09,207.29L484.83,209.94L480.57,212.59L475.97,215.43L471.77,217.05L467.46,218.72L459.00,220.51Z" fill="white">

</path><path d="M605.00,206.49L611.38,201.43L616.92,196.18L621.04,193.60L624.45,190.44L628.18,187.09L630.57,184.07L633.29,180.79L640.54,174.63L642.09,172.59L644.83,169.32L649.10,165.65L649.45,164.95L650.32,163.82L651.19,162.69L652.06,161.56L652.44,161.63L657.00,157.63L652.00,163.50L658.00,168.63L655.71,168.21L652.80,166.58L655.00,168.02L660.63,161.50L654.00,169.24L654.42,168.76L656.93,168.43L655.04,170.54L654.13,171.63L653.21,172.71L650.23,175.73L649.19,176.87L646.07,178.61L647.80,178.04L643.40,182.92L638.52,186.51L638.38,186.88L636.44,188.94L634.49,190.99L632.54,193.04L631.67,193.99L632.14,194.08L629.48,198.10L624.79,201.74L626.13,201.21L623.77,204.23L622.74,206.03L619.77,209.27L618.90,210.21L619.42,210.20L618.66,212.47L615.10,217.04L615.89,217.13L614.87,220.12L613.86,223.63L610.74,228.99L610.35,229.75L611.04,228.88L609.36,233.75L610.13,232.50L610.15,233.50L609.46,232.81L608.77,229.73L609.77,230.73L610.65,231.66L610.23,231.19L609.00,230.49L612.64,230.90L615.98,229.51L619.30,227.57L623.65,225.04L629.10,221.88L640.69,215.86L651.80,210.21L655.00,209.49L655.00,209.50L655.00,209.51L652.20,210.79L643.31,219.14L634.90,229.12L630.35,233.96L626.70,237.43L622.02,241.49L613.36,246.10L609.00,246.51L603.77,245.81L599.35,243.34L598.23,242.27L597.23,241.27L594.54,236.19L593.85,233.50L593.87,232.50L594.64,227.25L594.96,228.12L595.65,223.25L597.26,220.01L598.14,219.37L599.13,214.88L600.11,211.87L602.90,205.96L603.34,206.53L604.58,202.80L607.10,198.79L608.23,197.73L609.26,196.97L612.23,192.77L611.87,193.79L615.21,189.26L616.52,188.90L617.86,186.92L620.33,183.01L621.46,181.96L623.51,180.01L625.56,178.06L627.62,176.12L629.48,174.49L632.60,172.08L634.20,170.96L637.93,166.39L638.81,166.13L639.77,165.27L642.79,162.29L643.87,161.37L644.96,160.46L647.07,158.57L651.58,156.24L654.00,155.76L647.37,161.50L655.00,154.98L659.20,156.42L658.29,156.79L658.00,156.37L664.00,163.50L657.00,169.37L661.56,167.37L659.94,169.44L658.81,170.31L657.68,171.18L656.55,172.05L654.90,173.35L651.17,175.68L647.91,178.41L645.46,180.37L638.71,186.21L635.43,188.93L631.82,191.91L627.55,194.56L622.96,197.40L619.08,198.82L612.62,203.57L605.00,206.51Z" fill="white">

</path><path d="M684.99,194.49L690.33,189.49L692.34,188.19L696.98,184.83L698.39,182.88L701.52,180.28L706.39,176.82L708.47,175.45L710.89,173.36L711.19,172.68L715.38,169.01L716.65,167.26L716.53,166.52L716.36,166.45L717.83,163.87L722.00,160.10L717.47,165.50L717.24,163.50L717.12,162.50L717.50,162.75L718.91,165.40L719.69,166.26L716.77,164.62L719.00,166.08L718.00,166.20L717.00,166.31L716.00,166.42L714.34,166.52L715.24,167.01L711.35,168.56L706.97,169.76L706.11,170.93L700.01,172.91L699.31,173.97L696.34,176.01L693.36,178.03L690.39,180.03L689.60,181.10L686.56,184.06L682.38,187.88L679.36,190.86L675.21,194.70L672.81,197.87L668.08,202.42L668.38,202.82L665.19,206.65L664.14,208.59L660.83,212.87L657.77,216.80L656.43,219.70L655.91,221.68L656.28,221.85L654.74,226.48L655.52,225.50L655.47,229.50L654.88,229.94L654.36,227.14L656.05,229.68L655.33,230.71L655.54,228.70L656.86,230.38L655.00,228.78L658.00,228.86L661.97,229.08L665.61,228.67L669.61,227.52L674.97,226.01L679.73,225.88L679.53,225.54L683.32,224.53L687.74,222.73L692.30,221.11L695.18,219.76L699.85,218.22L707.51,214.82L712.00,213.49L712.00,213.50L712.00,213.51L708.49,216.18L702.15,222.78L698.82,225.24L695.70,227.89L692.26,230.27L686.68,234.47L684.47,235.46L680.27,237.12L679.03,236.99L674.39,239.48L668.39,242.33L662.03,243.92L658.00,244.14L655.00,244.22L649.14,242.62L648.46,242.30L644.67,238.29L643.95,237.32L643.64,237.86L641.12,233.06L640.53,229.50L640.48,225.50L641.26,220.52L641.72,221.15L642.09,217.32L643.57,213.30L646.23,208.20L649.17,204.13L651.86,200.41L654.81,196.35L655.62,196.18L657.92,192.58L661.19,189.13L664.79,184.30L668.64,180.14L671.62,177.12L675.44,172.94L678.40,169.90L681.61,166.97L684.64,164.97L687.66,162.99L690.69,161.03L695.99,158.09L697.89,158.07L703.03,155.24L706.65,154.44L708.76,153.99L713.66,152.48L716.00,152.58L717.00,152.69L718.00,152.80L719.00,152.92L723.23,154.38L722.31,154.74L725.09,155.60L728.50,160.25L728.88,162.50L728.76,163.50L728.53,165.50L722.00,170.90L726.17,169.13L725.64,168.55L725.47,170.48L723.35,173.74L720.62,175.99L716.81,178.32L715.11,179.64L711.53,181.55L709.61,182.18L704.48,184.72L701.61,186.12L699.02,188.17L693.66,190.81L691.67,191.51L685.01,194.51Z" fill="white">

</path><path d="M722.00,211.49L728.85,209.50L731.57,208.26L734.07,206.10L737.72,202.79L745.72,197.46L753.65,192.33L760.86,188.84L767.45,184.79L773.11,180.66L775.88,178.31L778.66,175.99L781.45,173.70L784.59,170.09L786.38,167.88L787.20,166.82L787.11,165.95L789.43,163.62L788.18,165.22L789.62,160.70L791.44,158.36L790.92,157.58L790.46,157.50L790.39,155.82L793.27,158.64L788.08,153.50L795.00,159.50L794.00,159.59L792.00,159.71L791.00,159.79L789.00,159.90L786.00,159.98L783.00,160.06L781.00,160.16L779.37,160.17L780.47,160.52L774.93,162.05L774.53,162.55L770.49,164.48L768.52,165.56L764.83,166.82L766.55,166.24L760.64,169.50L760.61,170.15L756.44,173.11L756.58,173.27L753.35,175.03L755.06,174.46L748.80,179.89L748.69,180.21L743.80,183.75L742.20,186.12L741.92,187.10L738.58,191.08L737.64,192.12L735.25,195.16L735.05,196.03L732.57,199.87L730.99,202.99L730.08,204.99L729.62,207.40L728.59,211.34L728.87,212.50L728.94,213.50L728.90,216.12L729.21,214.90L730.19,216.76L730.50,217.40L731.55,221.79L731.87,219.63L732.80,220.51L732.76,219.98L734.90,221.01L736.26,222.75L735.00,220.99L737.00,220.94L739.00,220.90L742.00,220.93L745.00,220.96L747.00,220.94L751.00,221.10L754.00,221.16L758.00,221.36L759.97,221.37L763.52,220.94L768.88,221.06L769.69,220.57L774.30,219.73L778.62,218.58L785.49,216.11L794.21,212.59L801.14,210.97L811.59,206.81L818.00,204.49L818.00,204.50L818.00,204.51L812.41,208.19L802.86,216.03L797.79,218.41L790.51,224.89L783.38,230.42L777.70,233.27L774.31,234.43L769.12,235.94L766.48,236.06L760.03,237.63L758.00,237.64L754.00,237.84L751.00,237.90L747.00,238.06L745.00,238.04L742.00,238.07L739.00,238.10L737.00,238.06L735.00,238.01L727.74,236.25L727.10,235.99L725.24,235.02L721.20,232.49L720.13,231.37L716.45,225.21L717.50,225.60L715.81,224.24L714.79,222.10L713.10,216.88L713.06,213.50L713.13,212.50L713.41,207.66L714.38,203.60L715.92,198.01L717.01,196.01L719.43,191.13L720.95,188.97L722.75,185.84L726.36,180.88L727.42,179.92L728.08,179.90L729.80,176.88L734.20,171.25L737.31,168.79L739.20,167.11L740.94,166.54L744.65,161.97L745.42,161.73L747.56,159.89L749.39,158.85L753.36,155.50L755.45,154.76L759.17,152.18L761.48,151.44L763.51,150.52L767.47,148.45L771.07,146.95L773.53,146.48L778.63,144.83L781.00,144.84L783.00,144.94L786.00,145.02L789.00,145.10L791.00,145.21L792.00,145.29L794.00,145.41L795.00,145.50L801.92,153.50L798.73,148.36L803.61,155.18L803.54,157.50L803.08,161.42L800.56,166.64L800.38,166.30L799.82,165.78L798.57,169.38L796.89,171.05L794.80,174.18L793.62,175.12L791.41,176.91L786.55,181.30L783.34,183.01L780.12,184.69L776.89,186.34L770.55,190.21L763.14,194.16L756.35,196.67L748.28,201.54L740.28,206.21L735.93,208.90L732.43,210.74L729.15,211.50L722.00,211.51Z" fill="white">

</path><path d="M302.99,143.49L307.24,137.71L309.40,136.30L311.29,135.07L313.17,133.84L316.34,132.40L319.04,132.04L322.89,132.82L326.79,133.35L331.75,133.90L334.77,134.96L340.38,136.42L346.38,139.53L351.53,142.28L354.91,144.14L358.03,145.87L359.84,145.98L365.78,148.17L368.77,149.18L374.62,151.65L377.58,152.72L383.60,154.29L390.96,155.27L400.52,153.89L414.00,149.49L414.00,149.50L414.00,149.51L401.48,157.11L391.04,161.73L382.40,162.71L374.42,162.28L371.38,161.35L365.23,159.82L362.22,158.83L356.16,157.02L351.97,155.13L349.09,152.86L346.47,150.72L341.62,147.47L337.62,144.58L331.23,142.04L330.25,141.10L325.21,139.65L321.11,138.18L318.96,136.96L317.66,136.60L314.83,137.16L312.71,137.93L310.60,138.70L308.76,139.29L303.01,143.51Z" fill="white">

</path><path d="M526.00,119.49L531.60,116.23L534.00,115.94L535.08,115.84L537.90,116.78L539.06,117.81L540.49,117.33L542.81,118.69L544.18,120.12L542.00,119.77L545.67,122.50L545.61,123.50L543.00,121.97L544.12,122.08L546.88,123.51L547.43,123.59L550.18,126.28L551.63,127.30L552.56,128.61L553.20,128.63L557.00,131.49L557.00,131.50L557.00,131.51L552.80,130.37L551.44,130.39L550.37,129.70L547.82,128.72L546.57,127.41L545.12,127.49L543.88,126.92L543.00,127.03L540.39,123.50L540.33,122.50L542.00,125.23L539.82,122.88L539.19,122.31L539.51,121.67L536.94,121.19L536.10,120.22L534.92,119.16L534.00,119.06L532.40,118.77L526.00,119.51Z" fill="white">

</path><path d="M527.01,120.49L527.00,120.50L526.99,120.51Z" fill="white">

</path><path d="M657.01,124.51L654.75,126.96L655.10,127.50L655.22,128.50L654.00,128.16L656.46,129.50L656.58,130.50L655.00,129.79L657.84,131.50L657.97,132.50L658.10,133.50L658.23,134.50L658.37,135.50L658.50,136.50L658.64,137.50L658.78,138.50L656.00,136.58L660.06,139.50L660.20,140.50L657.00,138.16L661.35,141.50L658.00,139.22L658.34,139.58L658.47,139.07L658.04,141.50L658.15,140.50L658.27,139.50L658.39,138.50L658.52,137.50L658.67,136.50L658.81,135.50L661.00,136.53L658.14,134.50L660.00,135.19L657.49,133.50L659.00,133.82L656.88,132.50L657.09,131.50L657.30,130.50L656.99,128.50L657.00,128.50L657.01,128.50L658.70,130.50L658.91,131.50L659.12,132.50L659.00,131.18L660.51,133.50L660.00,131.81L661.86,134.50L661.00,132.47L663.19,135.50L663.33,136.50L663.48,137.50L663.61,138.50L663.73,139.50L663.85,140.50L663.96,141.50L661.53,143.93L659.66,145.42L658.00,145.78L654.65,141.50L657.00,144.84L653.80,140.50L653.94,139.50L656.00,142.42L653.22,138.50L653.36,137.50L653.50,136.50L653.63,135.50L653.77,134.50L653.90,133.50L654.03,132.50L654.16,131.50L655.00,133.21L653.42,130.50L653.54,129.50L654.00,130.84L652.78,128.50L652.90,127.50L653.25,126.04L656.99,124.49Z" fill="white">

</path>
</mask>
</svg>