<svg width="696" height="198" viewBox="0 0 696 198" xmlns="http://www.w3.org/2000/svg" xmlns:xlink="http://www.w3.org/1999/xlink" data-cache="1690024975729">
<style>
path.line-0 {
  stroke-dasharray: 7 12;
  stroke-dashoffset: 7;
  animation: draw-0 1.92s ease forwards infinite;
}
@keyframes draw-0 {
  0% { stroke-dashoffset: 7; }
  0.38% { stroke-dashoffset: 0; }
  100% { stroke-dashoffset: 0; }
}
path.line-1 {
  stroke-dasharray: 191 196;
  stroke-dashoffset: 191;
  animation: draw-1 1.92s ease forwards infinite;
}
@keyframes draw-1 {
  0% { stroke-dashoffset: 191; }
  0.38% { stroke-dashoffset: 191; }
  10.75% { stroke-dashoffset: 0; }
  100% { stroke-dashoffset: 0; }
}
path.line-2 {
  stroke-dasharray: 44 49;
  stroke-dashoffset: 44;
  animation: draw-2 1.92s ease forwards infinite;
}
@keyframes draw-2 {
  0% { stroke-dashoffset: 44; }
  10.75% { stroke-dashoffset: 44; }
  13.14% { stroke-dashoffset: 0; }
  100% { stroke-dashoffset: 0; }
}
path.line-3 {
  stroke-dasharray: 0 5;
  stroke-dashoffset: 0;
  animation: draw-3 1.92s ease forwards infinite;
}
@keyframes draw-3 {
  0% { stroke-dashoffset: 0; }
  13.14% { stroke-dashoffset: 0; }
  13.14% { stroke-dashoffset: 0; }
  100% { stroke-dashoffset: 0; }
}
path.line-4 {
  stroke-dasharray: 96 101;
  stroke-dashoffset: 96;
  animation: draw-4 1.92s ease forwards infinite;
}
@keyframes draw-4 {
  0% { stroke-dashoffset: 96; }
  13.14% { stroke-dashoffset: 96; }
  18.35% { stroke-dashoffset: 0; }
  100% { stroke-dashoffset: 0; }
}
path.line-5 {
  stroke-dasharray: 41 46;
  stroke-dashoffset: 41;
  animation: draw-5 1.92s ease forwards infinite;
}
@keyframes draw-5 {
  0% { stroke-dashoffset: 41; }
  18.35% { stroke-dashoffset: 41; }
  20.58% { stroke-dashoffset: 0; }
  100% { stroke-dashoffset: 0; }
}
path.line-6 {
  stroke-dasharray: 0 5;
  stroke-dashoffset: 0;
  animation: draw-6 1.92s ease forwards infinite;
}
@keyframes draw-6 {
  0% { stroke-dashoffset: 0; }
  20.58% { stroke-dashoffset: 0; }
  20.58% { stroke-dashoffset: 0; }
  100% { stroke-dashoffset: 0; }
}
path.line-7 {
  stroke-dasharray: 18 23;
  stroke-dashoffset: 18;
  animation: draw-7 1.92s ease forwards infinite;
}
@keyframes draw-7 {
  0% { stroke-dashoffset: 18; }
  20.58% { stroke-dashoffset: 18; }
  21.56% { stroke-dashoffset: 0; }
  100% { stroke-dashoffset: 0; }
}
path.line-8 {
  stroke-dasharray: 0 5;
  stroke-dashoffset: 0;
  animation: draw-8 1.92s ease forwards infinite;
}
@keyframes draw-8 {
  0% { stroke-dashoffset: 0; }
  21.56% { stroke-dashoffset: 0; }
  21.56% { stroke-dashoffset: 0; }
  100% { stroke-dashoffset: 0; }
}
path.line-9 {
  stroke-dasharray: 37 42;
  stroke-dashoffset: 37;
  animation: draw-9 1.92s ease forwards infinite;
}
@keyframes draw-9 {
  0% { stroke-dashoffset: 37; }
  21.56% { stroke-dashoffset: 37; }
  23.57% { stroke-dashoffset: 0; }
  100% { stroke-dashoffset: 0; }
}
path.line-10 {
  stroke-dasharray: 0 5;
  stroke-dashoffset: 0;
  animation: draw-10 1.92s ease forwards infinite;
}
@keyframes draw-10 {
  0% { stroke-dashoffset: 0; }
  23.57% { stroke-dashoffset: 0; }
  23.57% { stroke-dashoffset: 0; }
  100% { stroke-dashoffset: 0; }
}
path.line-11 {
  stroke-dasharray: 35 40;
  stroke-dashoffset: 35;
  animation: draw-11 1.92s ease forwards infinite;
}
@keyframes draw-11 {
  0% { stroke-dashoffset: 35; }
  23.57% { stroke-dashoffset: 35; }
  25.47% { stroke-dashoffset: 0; }
  100% { stroke-dashoffset: 0; }
}
path.line-12 {
  stroke-dasharray: 0 5;
  stroke-dashoffset: 0;
  animation: draw-12 1.92s ease forwards infinite;
}
@keyframes draw-12 {
  0% { stroke-dashoffset: 0; }
  25.47% { stroke-dashoffset: 0; }
  25.47% { stroke-dashoffset: 0; }
  100% { stroke-dashoffset: 0; }
}
path.line-13 {
  stroke-dasharray: 75 80;
  stroke-dashoffset: 75;
  animation: draw-13 1.92s ease forwards infinite;
}
@keyframes draw-13 {
  0% { stroke-dashoffset: 75; }
  25.47% { stroke-dashoffset: 75; }
  29.54% { stroke-dashoffset: 0; }
  100% { stroke-dashoffset: 0; }
}
path.line-14 {
  stroke-dasharray: 25 30;
  stroke-dashoffset: 25;
  animation: draw-14 1.92s ease forwards infinite;
}
@keyframes draw-14 {
  0% { stroke-dashoffset: 25; }
  29.54% { stroke-dashoffset: 25; }
  30.9% { stroke-dashoffset: 0; }
  100% { stroke-dashoffset: 0; }
}
path.line-15 {
  stroke-dasharray: 0 5;
  stroke-dashoffset: 0;
  animation: draw-15 1.92s ease forwards infinite;
}
@keyframes draw-15 {
  0% { stroke-dashoffset: 0; }
  30.9% { stroke-dashoffset: 0; }
  30.9% { stroke-dashoffset: 0; }
  100% { stroke-dashoffset: 0; }
}
path.line-16 {
  stroke-dasharray: 25 30;
  stroke-dashoffset: 25;
  animation: draw-16 1.92s ease forwards infinite;
}
@keyframes draw-16 {
  0% { stroke-dashoffset: 25; }
  30.9% { stroke-dashoffset: 25; }
  32.26% { stroke-dashoffset: 0; }
  100% { stroke-dashoffset: 0; }
}
path.line-17 {
  stroke-dasharray: 0 5;
  stroke-dashoffset: 0;
  animation: draw-17 1.92s ease forwards infinite;
}
@keyframes draw-17 {
  0% { stroke-dashoffset: 0; }
  32.26% { stroke-dashoffset: 0; }
  32.26% { stroke-dashoffset: 0; }
  100% { stroke-dashoffset: 0; }
}
path.line-18 {
  stroke-dasharray: 193 198;
  stroke-dashoffset: 193;
  animation: draw-18 1.92s ease forwards infinite;
}
@keyframes draw-18 {
  0% { stroke-dashoffset: 193; }
  32.26% { stroke-dashoffset: 193; }
  42.74% { stroke-dashoffset: 0; }
  100% { stroke-dashoffset: 0; }
}
path.line-19 {
  stroke-dasharray: 0 5;
  stroke-dashoffset: 0;
  animation: draw-19 1.92s ease forwards infinite;
}
@keyframes draw-19 {
  0% { stroke-dashoffset: 0; }
  42.74% { stroke-dashoffset: 0; }
  42.74% { stroke-dashoffset: 0; }
  100% { stroke-dashoffset: 0; }
}
path.line-20 {
  stroke-dasharray: 83 88;
  stroke-dashoffset: 83;
  animation: draw-20 1.92s ease forwards infinite;
}
@keyframes draw-20 {
  0% { stroke-dashoffset: 83; }
  42.74% { stroke-dashoffset: 83; }
  47.25% { stroke-dashoffset: 0; }
  100% { stroke-dashoffset: 0; }
}
path.line-21 {
  stroke-dasharray: 0 5;
  stroke-dashoffset: 0;
  animation: draw-21 1.92s ease forwards infinite;
}
@keyframes draw-21 {
  0% { stroke-dashoffset: 0; }
  47.25% { stroke-dashoffset: 0; }
  47.25% { stroke-dashoffset: 0; }
  100% { stroke-dashoffset: 0; }
}
path.line-22 {
  stroke-dasharray: 119 124;
  stroke-dashoffset: 119;
  animation: draw-22 1.92s ease forwards infinite;
}
@keyframes draw-22 {
  0% { stroke-dashoffset: 119; }
  47.25% { stroke-dashoffset: 119; }
  53.71% { stroke-dashoffset: 0; }
  100% { stroke-dashoffset: 0; }
}
path.line-23 {
  stroke-dasharray: 0 5;
  stroke-dashoffset: 0;
  animation: draw-23 1.92s ease forwards infinite;
}
@keyframes draw-23 {
  0% { stroke-dashoffset: 0; }
  53.71% { stroke-dashoffset: 0; }
  53.71% { stroke-dashoffset: 0; }
  100% { stroke-dashoffset: 0; }
}
path.line-24 {
  stroke-dasharray: 93 98;
  stroke-dashoffset: 93;
  animation: draw-24 1.92s ease forwards infinite;
}
@keyframes draw-24 {
  0% { stroke-dashoffset: 93; }
  53.71% { stroke-dashoffset: 93; }
  58.76% { stroke-dashoffset: 0; }
  100% { stroke-dashoffset: 0; }
}
path.line-25 {
  stroke-dasharray: 55 60;
  stroke-dashoffset: 55;
  animation: draw-25 1.92s ease forwards infinite;
}
@keyframes draw-25 {
  0% { stroke-dashoffset: 55; }
  58.76% { stroke-dashoffset: 55; }
  61.75% { stroke-dashoffset: 0; }
  100% { stroke-dashoffset: 0; }
}
path.line-26 {
  stroke-dasharray: 118 123;
  stroke-dashoffset: 118;
  animation: draw-26 1.92s ease forwards infinite;
}
@keyframes draw-26 {
  0% { stroke-dashoffset: 118; }
  61.75% { stroke-dashoffset: 118; }
  68.16% { stroke-dashoffset: 0; }
  100% { stroke-dashoffset: 0; }
}
path.line-27 {
  stroke-dasharray: 0 5;
  stroke-dashoffset: 0;
  animation: draw-27 1.92s ease forwards infinite;
}
@keyframes draw-27 {
  0% { stroke-dashoffset: 0; }
  68.16% { stroke-dashoffset: 0; }
  68.16% { stroke-dashoffset: 0; }
  100% { stroke-dashoffset: 0; }
}
path.line-28 {
  stroke-dasharray: 194 199;
  stroke-dashoffset: 194;
  animation: draw-28 1.92s ease forwards infinite;
}
@keyframes draw-28 {
  0% { stroke-dashoffset: 194; }
  68.16% { stroke-dashoffset: 194; }
  78.69% { stroke-dashoffset: 0; }
  100% { stroke-dashoffset: 0; }
}
path.line-29 {
  stroke-dasharray: 119 124;
  stroke-dashoffset: 119;
  animation: draw-29 1.92s ease forwards infinite;
}
@keyframes draw-29 {
  0% { stroke-dashoffset: 119; }
  78.69% { stroke-dashoffset: 119; }
  85.15% { stroke-dashoffset: 0; }
  100% { stroke-dashoffset: 0; }
}
path.line-30 {
  stroke-dasharray: 0 5;
  stroke-dashoffset: 0;
  animation: draw-30 1.92s ease forwards infinite;
}
@keyframes draw-30 {
  0% { stroke-dashoffset: 0; }
  85.15% { stroke-dashoffset: 0; }
  85.15% { stroke-dashoffset: 0; }
  100% { stroke-dashoffset: 0; }
}
path.line-31 {
  stroke-dasharray: 42 47;
  stroke-dashoffset: 42;
  animation: draw-31 1.92s ease forwards infinite;
}
@keyframes draw-31 {
  0% { stroke-dashoffset: 42; }
  85.15% { stroke-dashoffset: 42; }
  87.43% { stroke-dashoffset: 0; }
  100% { stroke-dashoffset: 0; }
}
path.line-32 {
  stroke-dasharray: 0 5;
  stroke-dashoffset: 0;
  animation: draw-32 1.92s ease forwards infinite;
}
@keyframes draw-32 {
  0% { stroke-dashoffset: 0; }
  87.43% { stroke-dashoffset: 0; }
  87.43% { stroke-dashoffset: 0; }
  100% { stroke-dashoffset: 0; }
}
path.line-33 {
  stroke-dasharray: 76 81;
  stroke-dashoffset: 76;
  animation: draw-33 1.92s ease forwards infinite;
}
@keyframes draw-33 {
  0% { stroke-dashoffset: 76; }
  87.43% { stroke-dashoffset: 76; }
  91.56% { stroke-dashoffset: 0; }
  100% { stroke-dashoffset: 0; }
}
path.line-34 {
  stroke-dasharray: 0 5;
  stroke-dashoffset: 0;
  animation: draw-34 1.92s ease forwards infinite;
}
@keyframes draw-34 {
  0% { stroke-dashoffset: 0; }
  91.56% { stroke-dashoffset: 0; }
  91.56% { stroke-dashoffset: 0; }
  100% { stroke-dashoffset: 0; }
}
path.line-35 {
  stroke-dasharray: 155 160;
  stroke-dashoffset: 155;
  animation: draw-35 1.92s ease forwards infinite;
}
@keyframes draw-35 {
  0% { stroke-dashoffset: 155; }
  91.56% { stroke-dashoffset: 155; }
  99.98% { stroke-dashoffset: 0; }
  100% { stroke-dashoffset: 0; }
}
path.line-36 {
  stroke-dasharray: 0 5;
  stroke-dashoffset: 0;
  animation: draw-36 1.92s ease forwards infinite;
}
@keyframes draw-36 {
  0% { stroke-dashoffset: 0; }
  99.98% { stroke-dashoffset: 0; }
  99.98% { stroke-dashoffset: 0; }
  100% { stroke-dashoffset: 0; }
}
</style><rect x="0" y="0" width="696" height="198" fill="#fff">

</rect><g mask="url(#brush)">
<path d="M521,229L526,229L527,228L527,227" stroke-width="4.815217391304348" stroke-linecap="round" stroke-linejoin="round" stroke="#000" fill="none" class="line-0">

</path><path d="M30,88L30,89L31,89L31,90L31,91L32,91L33,91L34,91L35,91L36,91L37,90L38,90L39,90L40,90L41,89L43,88L44,88L45,87L46,86L48,85L49,84L51,83L52,81L54,80L55,79L57,77L58,75L60,73L62,71L63,70L65,68L67,66L69,64L71,62L72,60L74,58L75,57L77,55L78,54L79,53L80,52L80,51L81,50L82,50L82,49L83,48L83,47L82,47L81,47L80,48L79,48L79,49L78,49L77,50L76,50L75,51L75,52L74,53L73,54L72,55L70,57L69,58L68,60L67,62L66,63L65,65L64,66L63,68L62,69L61,71L60,72L59,73L58,74L57,76L57,77L56,79L55,80L54,82L53,84L52,86L51,87L51,89L50,91L49,93L48,95L47,97L45,99L44,100L43,102L42,104L42,106L41,108L40,110L39,111L39,113L38,115L37,116L37,118L36,120L35,122L35,124L34,126L33,128L33,130L32,132L32,134L31,135L31,136L31,135L31,134L31,132L31,131" stroke-width="4.815217391304348" stroke-linecap="round" stroke-linejoin="round" stroke="#000" fill="none" class="line-1">

</path><path d="M45,92L46,92L46,91L47,91L47,90L48,90L49,90L50,90L51,90L52,90L53,90L54,89L56,89L57,89L59,89L61,89L62,88L64,88L66,88L68,88L70,88L72,88L73,88L75,87L77,87L78,87L79,87L81,87L82,87L83,87L84,87L85,86L86,86" stroke-width="4.815217391304348" stroke-linecap="round" stroke-linejoin="round" stroke="#000" fill="none" class="line-2">

</path><path d="M46 93L46 93" stroke-width="4.815217391304348" stroke-linecap="round" stroke-linejoin="round" stroke="#000" fill="none" class="line-3">

</path><path d="M107,52L107,51L106,51L105,51L105,52L104,52L104,53L103,54L102,55L101,57L101,58L100,60L99,61L98,63L97,65L95,67L94,68L93,70L92,71L91,73L91,74L90,75L89,77L88,78L87,80L86,82L85,84L84,86L83,88L81,89L80,91L79,93L78,95L77,96L77,98L76,100L75,101L75,103L74,105L74,106L73,108L73,110L72,111L72,113L71,115L71,116L71,118L70,119L70,121L70,122L69,123L69,124L69,125L69,126L69,127L69,128L68,128L68,129L68,128" stroke-width="4.815217391304348" stroke-linecap="round" stroke-linejoin="round" stroke="#000" fill="none" class="line-4">

</path><path d="M107,90L106,90L105,90L105,91L104,91L104,92L103,93L103,94L102,95L101,96L101,98L100,99L99,101L99,103L98,104L97,106L97,108L96,110L95,112L95,114L94,116L93,117L93,119L92,120L92,121L92,122L92,123L92,122" stroke-width="4.815217391304348" stroke-linecap="round" stroke-linejoin="round" stroke="#000" fill="none" class="line-5">

</path><path d="M108 91L108 91" stroke-width="4.815217391304348" stroke-linecap="round" stroke-linejoin="round" stroke="#000" fill="none" class="line-6">

</path><path d="M105,75L104,75L105,76L105,77L106,77L106,78L107,79L107,80L108,81L109,82L109,83L109,84L110,85L110,86L111,86L111,85L110,85" stroke-width="4.815217391304348" stroke-linecap="round" stroke-linejoin="round" stroke="#000" fill="none" class="line-7">

</path><path d="M106 76L106 76" stroke-width="4.815217391304348" stroke-linecap="round" stroke-linejoin="round" stroke="#000" fill="none" class="line-8">

</path><path d="M142,118L142,117L143,117L143,118L143,119L143,120L144,120L144,121L144,122L144,123L144,124L144,125L143,126L142,127L140,128L136,131L131,133L125,137L122,139" stroke-width="4.815217391304348" stroke-linecap="round" stroke-linejoin="round" stroke="#000" fill="none" class="line-9">

</path><path d="M143 118L143 118" stroke-width="4.815217391304348" stroke-linecap="round" stroke-linejoin="round" stroke="#000" fill="none" class="line-10">

</path><path d="M196,49L195,49L194,49L195,49L196,50L197,50L198,50L199,50L201,50L202,50L204,50L206,50L208,50L210,50L212,50L214,50L216,50L217,50L219,50L220,50L221,50L220,50L219,49L218,49L217,49L216,49" stroke-width="4.815217391304348" stroke-linecap="round" stroke-linejoin="round" stroke="#000" fill="none" class="line-11">

</path><path d="M196 49L196 49" stroke-width="4.815217391304348" stroke-linecap="round" stroke-linejoin="round" stroke="#000" fill="none" class="line-12">

</path><path d="M211,52L211,51L210,51L210,50L210,51L210,52L210,53L210,55L210,56L209,58L209,60L208,62L208,65L207,68L206,72L205,75L204,78L203,81L202,84L201,87L200,90L199,92L198,95L198,97L197,99L196,102L196,104L195,106L194,107L194,109L193,111L193,112L192,113L192,114L191,114L191,113L190,113L189,112" stroke-width="4.815217391304348" stroke-linecap="round" stroke-linejoin="round" stroke="#000" fill="none" class="line-13">

</path><path d="M179,115L179,116L180,116L181,116L182,116L183,116L184,116L185,116L187,116L189,116L191,116L193,116L195,116L197,116L198,116L200,115L201,115L202,115L201,115" stroke-width="4.815217391304348" stroke-linecap="round" stroke-linejoin="round" stroke="#000" fill="none" class="line-14">

</path><path d="M180 115L180 115" stroke-width="4.815217391304348" stroke-linecap="round" stroke-linejoin="round" stroke="#000" fill="none" class="line-15">

</path><path d="M226,74L226,73L225,73L225,72L226,72L226,73L226,74L226,75L226,76L225,77L225,79L224,80L224,82L223,83L222,85L222,86L221,87L221,88L220,88L220,89L220,90" stroke-width="4.815217391304348" stroke-linecap="round" stroke-linejoin="round" stroke="#000" fill="none" class="line-16">

</path><path d="M227 74L227 74" stroke-width="4.815217391304348" stroke-linecap="round" stroke-linejoin="round" stroke="#000" fill="none" class="line-17">

</path><path d="M235,91L235,90L235,89L235,88L234,88L234,87L234,88L233,89L233,90L232,92L231,93L231,95L230,97L229,99L228,102L227,104L226,107L225,109L224,111L223,113L222,114L222,115L221,116L220,116L220,115L221,115L221,114L221,113L222,111L223,110L224,108L225,107L226,104L228,102L229,100L231,97L234,95L236,93L238,90L240,88L242,87L243,85L244,84L245,84L246,84L247,84L247,85L247,86L247,87L247,88L247,89L247,90L247,91L247,93L246,94L246,95L245,97L245,99L244,100L243,102L243,104L242,105L241,107L241,108L240,110L239,111L239,112L238,113L238,112L238,111L239,110L239,109L239,108L240,106L241,105L242,103L243,102L244,100L245,98L246,96L248,94L249,92L251,90L252,89L254,88L255,87L256,86L257,86L258,85L259,85L260,85L261,85L262,85L263,86L264,87L264,88L264,89L264,90L264,92L264,93L264,95L264,97L263,99L263,101L262,104L261,106L260,108L259,110L259,112L258,114L257,115L257,116L257,117L257,118L258,117" stroke-width="4.815217391304348" stroke-linecap="round" stroke-linejoin="round" stroke="#000" fill="none" class="line-18">

</path><path d="M235 91L235 91" stroke-width="4.815217391304348" stroke-linecap="round" stroke-linejoin="round" stroke="#000" fill="none" class="line-19">

</path><path d="M332,85L333,85L333,84L333,83L333,82L332,81L332,80L331,80L331,79L330,79L330,78L329,78L328,78L327,78L326,78L324,78L323,78L322,78L320,79L318,79L317,80L315,80L313,81L311,82L310,83L308,84L306,86L305,87L304,89L302,91L301,92L300,94L299,95L299,97L298,98L298,100L298,101L298,102L298,104L298,105L298,106L299,107L300,108L301,109L302,109L303,109L305,109L306,109L307,109L309,109L310,109L311,109L313,109L314,109L315,109L316,109L317,109L318,109L319,109L320,109" stroke-width="4.815217391304348" stroke-linecap="round" stroke-linejoin="round" stroke="#000" fill="none" class="line-20">

</path><path d="M333 85L333 85" stroke-width="4.815217391304348" stroke-linecap="round" stroke-linejoin="round" stroke="#000" fill="none" class="line-21">

</path><path d="M354,82L354,81L354,80L353,80L352,79L351,79L350,79L350,78L349,78L348,78L347,78L346,79L345,79L344,80L343,80L342,81L341,82L340,83L339,84L337,85L336,86L335,86L333,88L332,88L331,89L331,91L330,92L329,93L329,94L329,96L329,97L328,99L328,100L328,102L329,103L329,104L329,106L330,107L330,108L331,109L332,110L333,110L334,110L335,109L336,108L337,107L338,106L339,104L340,103L341,101L342,99L343,98L344,96L345,94L346,93L347,92L347,91L348,90L348,89L349,88L349,87L348,88L347,89L346,90L346,91L345,91L345,92L345,93L344,95L344,97L344,99L344,101L344,103L344,105L344,106L344,107L345,108L346,108L347,108L349,108L351,108L353,108L354,108L355,108" stroke-width="4.815217391304348" stroke-linecap="round" stroke-linejoin="round" stroke="#000" fill="none" class="line-22">

</path><path d="M355 83L355 83" stroke-width="4.815217391304348" stroke-linecap="round" stroke-linejoin="round" stroke="#000" fill="none" class="line-23">

</path><path d="M386,61L385,61L384,60L383,59L382,59L382,60L381,60L380,61L379,63L378,64L377,66L375,69L373,71L372,73L370,76L368,78L367,81L365,84L364,86L363,89L362,92L362,95L361,98L361,101L361,103L361,105L361,108L361,110L361,112L362,114L362,115L363,115L364,116L365,116L367,116L369,116L370,115L372,113L374,111L376,109L377,107L378,105L378,103L379,102" stroke-width="4.815217391304348" stroke-linecap="round" stroke-linejoin="round" stroke="#000" fill="none" class="line-24">

</path><path d="M350,74L349,74L348,74L347,74L346,74L347,74L349,74L351,74L353,75L356,75L358,76L361,76L365,77L368,77L372,77L375,77L379,77L382,78L385,78L388,78L390,78L392,77L395,77L396,77" stroke-width="4.815217391304348" stroke-linecap="round" stroke-linejoin="round" stroke="#000" fill="none" class="line-25">

</path><path d="M414,80L414,79L413,78L412,78L411,77L409,77L408,77L406,76L405,76L403,76L401,76L400,77L398,77L396,78L395,78L393,79L392,79L391,80L390,80L389,81L389,82L388,83L388,85L388,86L389,87L389,88L390,88L391,89L392,90L393,90L395,91L397,91L398,92L400,92L402,92L403,93L405,93L406,94L407,95L407,96L407,97L407,98L407,100L407,101L406,103L405,105L404,106L403,108L401,109L400,111L398,112L397,113L395,114L393,114L392,115L390,115L388,115L387,114L386,114L385,113L384,112L383,112L383,111L383,110L383,109L384,108L386,106L387,105L389,103L391,101L394,99L396,97L398,97" stroke-width="4.815217391304348" stroke-linecap="round" stroke-linejoin="round" stroke="#000" fill="none" class="line-26">

</path><path d="M415 81L415 81" stroke-width="4.815217391304348" stroke-linecap="round" stroke-linejoin="round" stroke="#000" fill="none" class="line-27">

</path><path d="M429,81L428,81L427,81L426,81L425,81L424,81L425,80L426,80L427,79L429,79L430,79L432,78L434,78L436,78L438,78L440,78L442,78L443,78L444,78L446,78L446,77L447,77L446,77L445,77L444,77L443,77L442,77L441,78L440,78L438,79L437,79L436,80L434,80L433,81L432,81L431,82L430,82L429,83L428,84L428,85L428,86L428,87L428,88L428,90L428,91L428,93L429,95L429,97L429,99L430,101L430,104L430,106L430,109L429,112L428,116L427,119L426,123L425,127L424,130L423,134L422,137L420,140L419,143L417,145L416,147L414,149L412,150L409,151L407,151L405,151L403,151L401,151L400,150L399,149L398,148L398,147L398,145L399,143L400,140L402,137L404,134L408,130L412,125L416,120L421,115L427,110L432,106" stroke-width="4.815217391304348" stroke-linecap="round" stroke-linejoin="round" stroke="#000" fill="none" class="line-28">

</path><path d="M462,78L462,77L462,76L462,75L462,74L461,75L461,76L460,77L459,78L458,79L457,81L456,83L455,85L454,87L453,89L452,92L452,94L451,97L451,99L451,101L451,102L452,104L453,105L454,106L455,106L456,107L457,108L458,108L459,108L460,107L461,106L462,105L464,104L465,102L467,100L468,98L470,96L471,94L473,92L474,90L476,88L477,87L478,85L479,83L479,81L480,80L480,79L480,78L479,78L478,79L477,80L476,80L476,81L475,82L474,82L473,83L473,84L472,85L471,86L470,88L470,90L469,92L468,95L468,97L467,100L467,102L467,104L468,106" stroke-width="4.815217391304348" stroke-linecap="round" stroke-linejoin="round" stroke="#000" fill="none" class="line-29">

</path><path d="M463 79L463 79" stroke-width="4.815217391304348" stroke-linecap="round" stroke-linejoin="round" stroke="#000" fill="none" class="line-30">

</path><path d="M499,76L500,76L499,76L499,77L498,77L498,78L497,79L496,81L496,82L495,84L493,87L493,89L492,92L491,94L489,98L489,100L489,101L489,102L489,103L489,104L489,105L489,106L489,107L489,108L489,109L489,110L489,111L489,110L489,109" stroke-width="4.815217391304348" stroke-linecap="round" stroke-linejoin="round" stroke="#000" fill="none" class="line-31">

</path><path d="M499 77L499 77" stroke-width="4.815217391304348" stroke-linecap="round" stroke-linejoin="round" stroke="#000" fill="none" class="line-32">

</path><path d="M535,81L535,80L534,79L534,78L534,77L533,77L533,76L532,76L532,75L531,75L530,75L528,75L527,75L525,75L523,75L522,76L520,77L518,78L514,80L512,82L511,83L509,85L508,87L507,88L506,90L506,92L505,94L505,96L505,98L505,101L505,102L506,103L508,104L510,104L515,105L518,105L521,104L525,103L527,103" stroke-width="4.815217391304348" stroke-linecap="round" stroke-linejoin="round" stroke="#000" fill="none" class="line-33">

</path><path d="M535 82L535 82" stroke-width="4.815217391304348" stroke-linecap="round" stroke-linejoin="round" stroke="#000" fill="none" class="line-34">

</path><path d="M538,90L538,91L537,92L537,93L537,94L538,94L539,94L540,93L541,93L542,92L544,92L547,91L549,91L551,90L553,90L555,89L558,88L560,87L562,86L564,85L566,85L569,83L571,83L572,82L574,81L575,81L575,80L576,79L576,78L576,77L575,77L574,76L573,76L572,75L571,75L568,74L567,74L565,73L564,73L562,73L561,73L559,73L556,73L554,73L553,73L551,74L548,76L547,77L546,78L544,79L543,81L541,84L540,85L539,87L538,89L538,90L538,92L537,96L537,98L537,100L537,101L538,103L540,105L543,107L546,107L548,107L552,107L556,106L560,104L568,102L575,99L578,98" stroke-width="4.815217391304348" stroke-linecap="round" stroke-linejoin="round" stroke="#000" fill="none" class="line-35">

</path><path d="M539 91L539 91" stroke-width="4.815217391304348" stroke-linecap="round" stroke-linejoin="round" stroke="#000" fill="none" class="line-36">

</path>
</g><mask id="brush">
<rect x="0" y="0" width="100%" height="100%" fill="black">

</rect><path d="M520.9983560101269,228.99013606076167L525.9962302243226,227.56579554910638L526.001216,227.574464L526.0062017756774,227.58313245089363L521.0016439898731,229.00986393923833Z" fill="white">

</path><path d="M30.009486832980507,87.99683772233983L30.872037308059195,89.65968694899674L33.400717557576826,90.3451636585705L35.881608752145546,89.64457203957988L38.20738538694204,88.99981572491527L41.253150065374776,87.33289368705672L43.34029904938864,86.15209568129862L45.95349977216305,84.08321673335291L48.77863510609297,81.97634786255264L51.5652332998725,79.12381649479906L54.27661235478553,76.5188643009084L57.16001975510235,72.87059957633666L59.1433574052068,70.87504115322466L62.25221029102492,67.67331670973059L64.1977487791087,65.81695808873259L66.21436849851123,63.91486490653367L68.24912012587419,61.989926008667915L71.35053225427166,58.11107172204416L74.40310653592505,54.830908011765665L76.72660393550237,52.28322217852178L78.71952937894442,49.19706077382732L80.51165604146995,47.08278261280859L81.47662113127672,49.64666184012529L79.53637725288877,51.448952517143546L77.51068548260216,52.72636321931524L75.81158439548992,55.336841271100425L73.11846669445052,57.920761241744174L71.08821093731852,60.3474366084092L68.86854311387239,63.68654327470858L66.81153272671223,66.73432208435949L64.78903255347444,69.73238263542747L62.773216848823914,72.72697096571564L60.640329121121574,75.12263518821958L58.963078277318466,78.93558206423778L56.98125095449374,82.12712539181233L54.95755969695614,85.81724725601764L53.782319593929394,88.37982382933836L52.88205941850389,90.6343095003805L50.867273431791865,94.70085209317716L47.89353310747606,99.05330928880642L45.69534316924175,101.99857922561417L44.462402143738494,105.12333488996086L43.555880840964676,107.41562356557378L41.42218842185127,111.16733072990145L40.37720744251974,114.43433225149894L39.12428501721975,117.19783923651472L38.1943151921348,119.3531630571036L36.775326072620146,122.91835097691494L35.821945339023735,125.11428390394782L34.299293121826594,128.81656328109446L32.883995380201746,132.73498597673742L31.57291295840488,135.38499546150723L31.516904243400433,135.46847968222139L31.4425434377071,135.53613366836663L31.354152394845606,135.58402536708945L31.256868406380097,135.6093713106099L31.156345622291056,135.61069839149974L31.05842643151278,135.58792947975525L30.968801902014018,135.54238790559685L30.892681015660227,135.47672054745436L30.834487921942817,135.3947439952684L30.79760480620283,135.3012227301037L30.784175316860022,135.20159221228565L30.794979976465978,135.10164297219097L30.829390817696748,135.0071840643501L30.995573944308134,131.81434797402773L31.005573710049042,131.81427952604025L31.01557347578995,131.81421107805278L31.57293184525705,135.38495828351128L31.516931478954703,135.4684481046795L31.442577439031776,135.53610952656703L31.354191185782103,135.58401006415468L31.25690973239736,135.60936573594725L31.15638708151902,135.61070286910882L31.058465614339173,135.58794374939725L30.968836531131124,135.5424111379195L30.892709078422136,135.47675139219396L30.834507787340485,135.39478065972725L30.797615319658412,135.3012630833417L30.784175867330987,135.20163390897073L30.794970531958928,135.10168358890988L30.829371927126875,135.00722124045717L31.012734786667615,133.7890551561202L31.68827057327532,130.32123609686494L32.49405588011211,126.13028637208194L33.727766321666195,122.34904665623871L34.090923015411825,119.9674555173127L35.381179190291064,116.40104808625865L35.95114359795273,114.02064532520846L37.24543702280259,111.33305054069672L38.70311384048,107.74927587547803L40.1223316867132,104.1754366817735L41.817331225532456,99.57823961650409L43.11819516039475,97.50888381614512L45.52871407114151,94.55309264417579L47.35218603510366,90.60608640533208L48.77852307235208,87.2075196289349L50.411593190644,83.49311088912653L52.34170708808686,79.51929752932476L54.082373247218904,76.72968442663766L55.41803279720779,73.50134387825733L57.705594542498595,70.45543652006732L59.42618751558686,68.49450736807088L61.41013200310458,65.48385454307201L63.387749806126784,62.46324719828661L65.34899844791738,59.39203107155957L66.42219443779307,57.32310428855989L67.83155601091737,55.15249892283203L70.52037347670019,52.24597142110256L72.19741050584261,50.498495536134506L73.84451865659332,48.295841135817845L77.18635366873693,46.84905956900872L79.30685877442087,45.275815681638534L81.60278681097168,44.573617503651704L84.74688900022605,46.73499404186542L83.95098829603165,50.6129191017203L81.78660589975314,52.59559401243866L79.7303261595716,55.269079953222274L77.22916287412144,57.592283379430334L74.22970978032134,60.64185618546733L72.63214435960873,62.49791018173417L71.01857760212104,64.74382968332247L69.08881220735945,66.78551669148196L67.19240000979003,68.80162425934496L65.35109556411902,70.74477728065554L62.2628917245987,73.84726511351249L60.482747719911124,75.80171970488185L58.95574370526846,77.56278136566164L57.3666947567429,79.73065079676138L55.55094367813073,81.44526498125738L52.72347141648224,83.41703601065574L49.33309500383117,86.197796549899L46.40670683394368,87.93288685547512L43.56998625633263,89.68828116632471L40.97568963411796,90.51254196875385L38.414668061805564,91.13413918100687L35.35765793035294,91.73533091548403L32.21206557621394,91.26008701384902L30.311962691940803,89.89231305100326L29.990513167019493,88.00316227766017Z" fill="white">

</path><path d="M44.992928932188136,91.99292893218814L45.978491155439954,90.60070539611552L48.19846075181317,89.65701658923527L51.299079204973005,89.23830946551935L54.73587680692641,88.07011987690117L57.80266022718324,87.67817889593135L60.440089664258345,86.9559907758064L64.60084187898993,86.2713328618658L68.62013915967651,86.3660173664289L72.00546094565928,86.58600314604105L75.55149002414605,86.07898012140588L78.17652643474538,86.14484189278306L81.12412805633527,86.43564086324503L85.30338799379481,86.15686808039897L85.30572126202088,86.16659206411889L85.30805453024695,86.17631604783881L81.13015322387135,87.5736022188234L78.23836976026745,87.91068411925815L75.82826893282252,88.2545815618483L72.05787381121647,89.41780358246582L68.64768305338904,89.6568508123178L64.7900547296796,89.86604325997857L61.69015236206281,89.86926947172078L57.86709435231238,90.37745023425404L55.06955006912858,90.26406126848406L52.3752851621486,90.85543559469757L49.34810721770427,90.63383429492958L46.38950884456004,91.03129460388449L45.007071067811864,92.00707106781186Z" fill="white">

</path><path d="M46.59907106781186,93.58492893218813L46.592,93.592L46.584928932188134,93.59907106781186Z" fill="white">

</path><path d="M107,52.01L105.2782613743715,52.360823346136605L103.1378076420193,54.84280078584747L102.17083791915306,57.44397706710039L100.60661624637832,60.81083348972284L98.96023146890847,64.38156090172514L97.28582895108038,66.62496975592431L95.23698626165077,69.72349740334566L93.37468024366778,72.79522322400497L92.2906259731399,75.42841394806621L90.4787786147108,78.51100220940657L88.75914026414513,81.80423763949587L86.78666565621373,85.69452421168344L83.63952942279967,89.75827718505413L81.70212820980355,92.81390338887698L79.51456058610898,96.28285820684086L78.52240048140725,99.50188163792477L77.32460046255687,102.24239301972099L76.41266905284422,104.43502874320323L75.30093864247496,107.52937050847531L74.0967079128518,110.86539277547969L72.95124780632725,114.23985790271713L72.42488272918905,116.93003023015737L71.26403194534784,119.98271299615175L70.19160786977763,122.64668748117981L69.55559911018271,125.32774681480814L68.07824445733422,128.1950928568351L68.0778517528071,128.19747146732294L68.07690120376847,128.19968697205633L68.07544805617313,128.20161060579605L68.07357676702759,128.2031305668588L68.0713960957449,128.20415851503617L68.06903278304249,128.2046347059318L68.06662418476564,128.20453146330846L68.06431028875939,128.20385478763228L68.06222557876833,128.20264400732535L68.06049121823509,128.200969492996L68.05920800827535,128.19892856749573L68.05845052911226,128.19663984951046L68.05826280547038,128.1942363594371L68.06825360998987,128.1946651076774L68.07824450005918,128.19509185774822L68.07785203339508,128.19747050749461L68.07690170591168,128.19968610727182L68.07544875068697,128.2016098863167L68.07357761354689,128.20313003450076L68.07139704506993,128.20415820074012L68.06903377999842,128.20463462796465L68.06662517140936,128.20453162620166L68.0643112077471,128.20385518191847L68.06222637668843,128.20264461008858L68.06049184871243,128.20097026920365L68.05920843466656,128.19892947203456L68.05845072663546,128.19664082980867L68.05826276264551,128.1942373585197L68.43219848309249,124.23076166131817L69.10323378286185,120.99105226405656L69.31263171695987,117.56709934543272L69.74543579768294,114.75266096026895L70.5192033942889,111.51387827374919L71.37508928052229,108.38092412164112L72.22986176816116,104.61502293205186L73.18298376781934,101.35701997700974L73.80591597006321,98.92446130923331L75.14173727038371,96.28144329364298L75.88642236239318,93.799126741568L77.81204271305153,90.56595621084941L78.98773959345675,88.47036124708399L80.55459617105284,86.30566216355207L82.59019416844805,83.57692996823653L84.61011569907673,79.60847730139197L86.84479863455543,75.75030919058287L88.7585453147436,73.02871431984414L90.02605077254894,70.83823667068911L92.2756712271559,67.8638962354837L94.89920498302352,64.68568983911943L97.49896445089605,61.17073352650261L99.53841287940477,58.393904488450175L100.97514135314952,55.489169926965346L103.22349066081594,53.01207621587444L105.16973862562851,51.639176653863395L107,51.99Z" fill="white">

</path><path d="M107.00316227766017,90.0094868329805L105.34979950133878,90.89487704953342L103.837182164415,93.55646965363253L102.28192443686551,95.84153432594435L101.47116641208633,98.71831732235374L100.59692063569108,101.99067067917501L99.05316919766416,105.52163428741292L97.84775144176217,109.15831810392596L96.32500048347273,112.82610910626647L94.26006214876426,116.41920399718221L92.87653567270934,119.30092818321776L92.02285193844004,122.12582970756621L92.02142038883854,122.1277694679733L92.01956621056407,122.12931025596161L92.01739716854506,122.1303625208609L92.01503932760556,122.13086510498574L92.01262972557178,122.1307887981232L92.01030840862713,122.13013803523174L92.00821029182148,122.12895063868115L92.00645731780219,122.12729562001475L92.00515136950158,122.1252691689952L92.00436834869627,122.12298906305097L92.00415376459226,122.12058782204666L92.00452008882773,122.11820500622227L92.00544603062093,122.11597910494545L92.01414873826542,122.12090484140353L92.02285243088313,122.12582883722158L92.02142107526484,122.12776874077392L92.01956705107843,122.12930971417236L92.01739811429675,122.13036219597058L92.01504032362747,122.130865015877L92.01263071397506,122.13078894997506L92.01030933196571,122.13013841921853L92.0082110964309,122.12895123248555L92.0064579569185,122.12729638912484L92.00515180597932,122.12527006871025L92.00436855716734,122.1229900410795L92.0041537329403,122.12058882154561L92.00451981889236,122.1182059691007L92.0054455380908,122.11597997524085L92.68974440321405,117.66325337862386L93.66889650018067,114.30695409454052L94.46917220969632,110.12606955502245L95.70061079901005,106.39248245856687L96.17947394141474,104.08353598961574L97.9059817280567,101.42677860132203L99.54992141319589,97.57143469908648L100.95010065734233,94.7864454260755L103.21485184619046,92.00311100939001L105.09820049866123,90.28912295046658L106.99683772233983,89.9905131670195Z" fill="white">

</path><path d="M108.59907106781186,91.58492893218813L108.592,91.592L108.58492893218813,91.59907106781186Z" fill="white">

</path><path d="M105.0094868329805,74.99683772233983L105.94403803626678,76.65589190118251L107.3347540037356,79.04090943889585L108.86893590217485,80.89623186361655L109.34775143026701,83.22412736381033L110.3375150763415,85.11816757733547L110.33757716125318,85.12057758774255L110.33706067073453,85.12293242154617L110.33599562323877,85.125095215695L110.33444391937637,85.12694026849151L110.33249574424875,85.12836034538049L110.33026432588584,85.1292729114264L110.32787935442774,85.12962492824778L110.32547944452766,85.12939593661046L110.32320407906174,85.12859924551914L110.32118550237777,85.12728115869747L110.31954103424748,85.12551828341347L110.31836625123584,85.12341307806147L110.31772943178672,85.12108789727546L110.3276223270721,85.11962823194658L110.33751493022658,85.11816658806785L110.33757725613899,85.12057659225438L110.3370610011063,85.12293147769527L110.33599616989528,85.12509437833805L110.33444465054592,85.12693958629572L110.33249661743572,85.12835985799511L110.33026529034058,85.12927264717828L110.32788035409608,85.12962490249507L110.32548042130884,85.12939615084987L110.32320497618518,85.12859968729909L110.32118626770263,85.12728180234167L110.31954162329303,85.12551909151331L110.31836662976674,85.12341400365014L110.31772957780271,85.12108888655769L107.90410399638361,81.69575026124284L106.19648337226441,79.40265868910416L105.23996196373322,76.89610809881748L104.9905131670195,75.00316227766017Z" fill="white">

</path><path d="M106.59907106781186,76.58492893218813L106.592,76.592L106.58492893218813,76.59907106781186Z" fill="white">

</path><path d="M142.00707106781186,117.99292893218814L143.4646480485915,118.91610821286996L144.43713014341867,121.18052072861268L144.84466174694697,124.36287708194646L143.406501577795,127.02146585137666L138.7771956775136,130.48108499754235L134.18307325211873,132.17858975193465L128.74703754735157,134.98689160445235L124.70766996136001,137.28851449872835L124.70230059340643,137.28007827399335L124.69693122545286,137.27164204925836L128.49953398895445,134.58211954257388L133.57813149372942,130.96114345156096L137.34340418976126,128.5084571678881L140.37436571049824,126.28226364512584L142.55975843981682,124.81287091405616L143.26875294815102,122.35583892809257L142.9033519514085,119.45189178713004L141.99292893218814,118.00707106781186Z" fill="white">

</path><path d="M143.59907106781188,118.58492893218813L143.592,118.592L143.58492893218815,118.59907106781186Z" fill="white">

</path><path d="M196.004472135955,48.991055728090004L197.33520847309674,49.28418076394201L199.915971123754,49.367701911110714L202.83923903406077,49.17628939497196L206.65806653019914,48.90752887388245L210.62771972706688,48.748164146670504L214.62262552528142,49.04012251383832L217.7882517180551,49.29761115732125L220.22382454063026,49.53012407949673L220.33627631863195,49.543779084169294L220.4421922868229,49.58394958591523L220.53541660415542,49.64830087328565L220.610531068926,49.73309284643507L220.66317002491297,49.8333973919001L220.69027409352114,49.94338480478553L220.6902679850095,50.056662611486715L220.66315205440503,50.166647100555856L220.61050228086853,50.26694596832065L220.53537867171164,50.35172983987409L220.44214741462827,50.416071072617925L220.33622711466052,50.45623015108204L220.22377386461915,50.46987302773922L216.67221044277895,49.03770177163631L216.67262206712175,49.02771024695784L216.67303369146455,49.01771872227937L220.2237775531828,49.530124081661675L220.33623069612267,49.54376784108818L220.4421506808342,49.58392775103646L220.53538143282933,49.64826971565341L220.61050437642166,49.733054176932406L220.66315336259999,49.833353458000325L220.6902684298139,49.943338159928956L220.69027364908294,50.056615966674606L220.66316871706294,50.166603166786885L220.61052897367642,50.26690729902753L220.5354138432823,50.35169868251795L220.44218902078833,50.416049238065774L220.33627273725804,50.45621890835907L220.2238208520666,50.46987303027302L217.7882416540665,50.70237148018446L214.62255284434565,50.959773184364984L210.62714841035083,51.251209280636886L206.6550109965797,51.0887071129218L202.82352004164818,50.801099030178506L199.847431628246,50.49646346488929L197.03279152690325,49.899819236057986L195.995527864045,49.008944271909996Z" fill="white">

</path><path d="M196.59907106781188,49.584928932188134L196.592,49.592L196.58492893218815,49.59907106781186Z" fill="white">

</path><path d="M211.00707106781186,52.007071067811864L210.628481519689,52.768521436322246L210.56190392760487,55.237975232354614L209.941125414599,58.82555610116375L209.2307266258209,63.34526492657822L208.58928120473257,66.32970574290465L207.69321301437594,69.8456945691832L206.74774154627926,73.10958177487498L205.78959777144533,76.2265261257099L204.8239279756505,79.2807203440316L203.85186322365192,82.3076800489629L202.8563801389952,85.31646632327133L201.79821336398456,88.30031089702771L200.7901357186421,90.79667567797082L199.76121457255886,93.48407560946568L198.6037660757929,97.92016473067626L197.60929443562426,100.5124465943338L196.36974047053187,104.85473112754936L195.0128283637886,107.93409807433267L193.74349709103942,111.18399877706207L192.4969783964646,113.41742298497523L189.61739039159312,112.45829162932615L189.61647583427805,112.46052223229754L189.6150540191283,112.46246913917217L189.6132075821072,112.46401919563101L189.61104383822115,112.46508231231985L189.6086885443665,112.46559670084677L189.6062785903327,112.46553246492644L189.60395404276144,112.46489333795354L189.6018500044668,112.4637164660178L189.6000887622533,112.46207024897139L189.59877267960115,112.46005036502639L189.59797824729594,112.45777420993262L189.59775163778056,112.45537407393105L189.59810602161068,112.45298945303887L189.6077480740475,112.45564102329176L189.61739065660552,112.45829066508115L189.6164763223553,112.46052135949711L189.61505470190338,112.46246840854351L189.61320841989715,112.4640186496383L189.61104478233358,112.46508198269622L189.60868953992954,112.46559660674997L189.6062795794842,112.46553261182535L189.60395496801186,112.46489371731042L189.60185081204054,112.46371705578437L189.60008940521416,112.46207101487042L189.5987731205802,112.4600512625438L189.59797846066346,112.45777518690463L189.5977516111356,112.45537507357601L189.59810575650187,112.45299041725737L192.1114093108265,111.97558710154507L192.91066077716772,109.4528492189785L193.8759578549777,105.56396371280098L195.27905217187586,102.27949310977857L195.63324075673663,99.84375507040659L197.14665478562884,95.20509599893015L197.6170377405021,92.71316660089123L198.5879336761152,89.8828395434922L199.5794077015971,87.5612460183228L200.5201420805677,84.54029082219563L201.52196574586495,81.53731295463261L202.54329989081245,78.53543897850643L203.56145092086584,75.51896240992254L204.5636523074246,72.46269404775353L205.5209876074473,69.30204029020041L206.38670071150085,65.77748753989829L207.16138591396688,63.113542139115275L208.41441416025052,58.60730064680272L209.5739306963951,55.14433414364538L210.18751848031098,52.41547856367775L210.99292893218814,51.992928932188136Z" fill="white">

</path><path d="M179.00316227766018,114.9905131670195L180.8731681852157,115.29915421737292L183.2664629102999,115.41979461572603L185.89554534061136,115.24566413609081L189.66740782120695,114.97365078065076L193.62918886835237,115.18536993339204L197.02239302863666,115.49330512273067L201.09134330671907,115.01770881819535L201.09373652240876,115.01799954721199L201.09599061301515,115.01885457951352L201.0979745706863,115.02022422058242L201.0995730877091,115.0220288668154L201.10069325819916,115.02416363208862L201.10126997779489,115.02650444374409L201.10126972752633,115.0289152536984L201.1006925219391,115.03125594556376L201.09957190824903,115.03339047821896L201.09797301657647,115.0351947925258L201.09598877458052,115.03656402165198L201.09373450649923,115.03741858593636L201.09134123049938,115.03770881806258L201.09134276860922,115.02770881818087L201.09134230671907,115.01770881819154L201.0937355514697,115.01799930788515L201.09598972756805,115.01885411477335L201.09797382219335,115.02022355743964L201.09957251967282,115.02202804381189L201.10069290363379,115.02416269705738L201.1012698573078,115.02650345102919L201.10126984812027,115.02891426099647L201.10069287660508,115.03125501057069L201.0995724763739,115.0333896552766L201.09797376514075,115.03519412946358L201.09598966007763,115.03656355700711L201.09373547746404,115.03741834671402L201.09134223049938,115.0377088181664L197.03930761188633,116.50659057547261L193.62881670956844,116.81400349391534L189.66451726722562,117.02258520615348L185.88043678424805,116.73172428905964L183.17710521770013,116.44437076027396L180.67883181478433,115.88484578262708L178.99683772233982,115.0094868329805Z" fill="white">

</path><path d="M180.59907106781188,115.58492893218813L180.592,115.592L180.58492893218815,115.59907106781186Z" fill="white">

</path><path d="M225.99,74L225.7091531297973,73.408L225.71760514667807,73.33839361578133L225.74246996570218,73.27283275788388L225.7823024424197,73.21512782644902L225.83478751141223,73.16863263480302L225.896874738004,73.13604948566888L225.96495560966827,73.11927211320521L226.03507326294516,73.11927561908789L226.10315245653177,73.13605979955481L226.16523642449818,73.16864915724868L226.21771684370913,73.2151495971691L226.25754354973435,73.2728585115631L226.28240181254836,73.33842185561464L226.29084686874847,73.40802908468697L225.87799844239893,76.6122366314639L225.17760586821515,79.52383865080738L224.22862195590184,82.52678054141523L222.78875885530348,85.27177450232075L220.09193664666765,89.37778650104781L220.0820220631104,89.37648226453297L220.07210747955315,89.37517802801813L221.7063793567418,84.95255355743437L222.7458242429477,81.70817752612561L223.77422875578486,78.77497711440823L224.93800155760104,76.07019179279365L225.70915313125153,73.40802908468697L225.71759818745164,73.33842185561464L225.74245645026565,73.2728585115631L225.78228315629087,73.2151495971691L225.83476357550182,73.16864915724868L225.89684754346823,73.13605979955481L225.96492673705484,73.11927561908789L226.03504439033173,73.11927211320521L226.103125261996,73.13604948566888L226.16521248858777,73.16863263480302L226.2176975575803,73.21512782644902L226.25753003429782,73.27283275788388L226.28239485332193,73.33839361578133L226.2908468702027,73.408L226.01,74Z" fill="white">

</path><path d="M227.59907106781188,74.58492893218813L227.592,74.592L227.58492893218815,74.59907106781186Z" fill="white">

</path><path d="M234.9905131670195,91.00316227766017L234.07482729261903,89.33454892800293L233.73118693798583,88.05248435400473L233.70911214288967,87.9440960965568L233.71361865921733,87.83357459529245L233.74444456802814,87.727343365058L233.79979826605364,87.63157656994593L233.87646259376385,87.55184018058773L233.96998181683014,87.49276847967931L234.07492059361394,87.45779471725292L234.18517987747802,87.44895157002404L234.29435139366376,87.46675300212509L234.39609008852096,87.51016439348597L234.4844829043244,87.57666267200109L234.55439244646647,87.66238295459877L234.60175556907313,87.76234317442686L233.15045758930884,91.25584003862191L232.22310895636377,94.05249321203617L230.76417338460269,98.18503478897811L229.92531181154143,100.69988768347655L229.00468508582335,103.04520898631881L228.08889677466874,105.66735506256585L227.13349639474484,108.06089651166363L226.19396568656467,110.25404636543162L224.2196295302434,114.06524990384294L223.11256740837408,116.53906907237129L219.7026477798324,117.2710010699452L221.2222219752202,117.28342776647878L220.715828763621,117.4572004217536L220.18256353434612,117.50473162962169L219.65341968757633,117.42325887404851L219.15915108854765,117.21751735541596L218.7284846514587,116.8994647804537L218.3864507298679,116.48758637976215L218.1529283513685,116.00582054534155L218.04148984757086,115.48216753012407L218.05861202955163,114.9470620719579L218.2032997552896,114.43160452521347L218.46714376736676,113.96575330672626L218.83480943940455,113.57658371120263L219.2849280252694,113.2867142938195L220.37356859166405,109.42276645194497L222.29839900832636,106.35595413654647L225.03782707956879,102.06532428800767L228.09461101377684,97.65346259608839L231.03977785847172,95.16859314041322L233.261480183729,93.17123725714306L235.29776572176127,90.8125643774496L237.4382858079486,88.50410161068315L239.6313835026599,86.76134899322577L241.88973766791136,83.70240861690723L244.87524761143203,82.20642018508704L248.47542540729845,83.41531275254992L249.24049920993417,86.19221310309007L249.48414349653004,89.30261278750105L249.54460330968803,92.01009441840402L248.7669870119154,94.25221568445843L247.92242790735145,96.88827263533636L246.84031469752108,100.3070038689622L245.80093112900556,103.21971327162258L243.9413067239294,106.98247068608786L242.92163603935106,109.87008747810894L241.794594648027,112.09522271544401L237.62330991721714,114.57571841670433L235.43984975921032,111.43554996715696L236.2107209523165,109.13237009242386L236.89956909272706,106.01406463061446L238.88322985710545,102.78712539097866L240.91858039686815,99.78495124409125L242.97125626806212,96.13467909465841L244.94491731243903,93.7935422645733L248.05927568079892,89.87267978967469L251.5108720012985,86.88329793219347L253.66171230341757,84.92128743343207L255.8630412641505,83.5288647148368L258.9906649857181,82.57256110890174L261.4552660261056,82.48292397159263L263.62141112208434,83.36201698828465L266.0959812421295,86.33645846621212L266.53574717518393,89.14147577415524L266.48116052756836,92.1229693011818L266.2613456276551,95.73523307075055L265.42517073505684,98.26379764920112L264.0819250794509,102.64995288646973L262.9444059126598,104.98168712391872L261.77909755599757,107.06369640779839L260.1010019306783,110.77595458321646L258.01120021717435,114.27226554556967L257.6176186843927,117.12434617947777L257.61608647754997,117.1262074550859L257.614153350364,117.12764794943904L257.6119316562777,117.12858394093769L257.6095505202558,117.12896102971195L257.60714833403574,117.12875729934456L257.6048647127935,117.12798459065405L257.602832380703,117.1266878135058L257.6011694570007,117.12494233664862L257.59997259089045,117.12284960727945L257.5993113442868,117.12053125492753L257.59922414887336,117.11812202234051L257.5997160724517,117.11576193422954L257.6007585244003,117.11358815902652L257.609188335446,117.11896759075614L257.61761922220944,117.12434533641598L257.6160872015019,117.12620676523551L257.61415421837506,117.12764745289415L257.611932617899,117.12858366655752L257.6095515195979,117.1289609934435L257.6071493130168,117.12875750329574L257.6048656145151,117.12798502297123L257.602833152757,117.12668844906267L257.6011700545154,117.1249431385066L257.5999729791382,117.12285052883449L257.5993115007026,117.12053224261884L257.59922406436635,117.1181230187634L257.5997157519334,117.11576288147187L257.6007579864993,117.11358900203452L257.22937517991926,113.78326834380033L258.44955192537213,110.44500544039231L259.5282473116642,106.04568474133158L260.86973334316144,101.78913994519344L261.22835414296895,99.39724526207901L261.3897707694869,97.0506296844156L261.60196780851794,93.84197200942066L261.45940790979625,90.95007954637508L261.16560737902194,87.54622133487247L258.7315789361528,87.52292270969099L255.61401243094772,89.54809590416586L252.83470147582327,91.55450766719909L250.21358336366347,94.66649869963294L247.65272555725505,98.55477741398492L245.7172196879381,102.56751240356425L243.82356611563506,105.54091939741703L241.81824980902965,108.9725449327428L241.04263461308042,112.0542291642326L239.3978666186994,109.97894512263686L236.70828901843515,110.36228595941182L238.099339465636,107.76565763708619L239.29004362802115,104.61865096901552L240.69420506831364,102.17341470261435L241.2506986774347,99.64118251424134L242.6038755237078,97.28303520964174L243.0293340097943,94.86200682201985L244.45432617011411,91.79668099338234L244.56529406230115,88.34740215655773L245.70768614723346,86.09806274959513L243.35215932409932,87.28213525566562L239.76138371935247,90.60896617719526L237.83867919809433,92.8175037300955L235.72000246297588,95.72598849664392L233.5618952952167,97.93245037377055L231.57615651977324,99.94713425240127L230.09802694927149,102.59363208303148L227.5590702832561,106.56582969378562L226.35860791144088,109.40548783144487L224.46062330428478,112.25679169871438L223.09154860884266,115.05301335671372L221.22242180120654,117.28333088179812L220.7160459694048,117.45715417552515L220.18278549591702,117.50473870967842L219.65363350451742,117.4233188688972L219.15934433380824,117.21762677815317L218.7286460936152,116.89961727142482L218.38657098589456,116.48777307618477L218.1530004319794,116.0060305964108L218.0415095634375,115.48238872766194L218.05857823478695,114.94728155995311L218.2032144140469,114.43180954701343L218.46701183968307,113.96593194645429L218.83463859292303,113.57672558630938L219.2847281895956,113.28681115851708L220.43434213313301,113.52635222667675L222.11951668866354,110.81933612025061L224.24079752900616,106.79603369222241L225.27947068550526,104.62904249597837L226.34915672832867,101.8773340493288L227.3929279290273,99.75732563918915L228.4668063716932,97.13166453128095L230.26980095986966,93.63202308133104L231.81060255722977,90.63826495325146L233.7312014493976,88.0525278809854L233.70911581558607,87.94414183155891L233.71361127974112,87.83361988019554L233.74442656527478,87.72738556790138L233.79977068634403,87.63161323789834L233.87642704003196,87.55186918250607L233.96994035546058,87.4927881299707L234.07487563434344,87.45780387384154L234.18513403334154,87.44894970072849L234.2943073291246,87.46674021558894L234.39605036461225,87.51014143286328L234.48444982980158,87.57663087176435L234.5543679436223,87.66234416297922L234.60174106201416,87.76229964599527L234.74117270738094,89.11345107199708L235.0094868329805,90.99683772233983Z" fill="white">

</path><path d="M235.59907106781188,91.58492893218813L235.592,91.592L235.58492893218815,91.59907106781186Z" fill="white">

</path><path d="M331.9905131670195,84.99683772233983L332.3032542770539,83.15668409558475L331.06896234083456,80.74011896543266L329.5695381859404,78.93788405707416L326.651427266656,79.19591211612597L323.8495666280695,79.4213133132121L319.53357703485716,80.55104864456548L316.51348374147636,81.72203128717462L313.20687405498734,83.28743956691535L310.2968881139572,85.25780258428156L307.4806868910831,87.82271693450747L304.84912673344974,91.21795703422104L302.6677192516385,94.01914079117668L301.46271799280976,96.38530490080322L300.3928884797006,99.2178603055604L300.17846370853016,102.89752659006815L300.40677013102766,105.24839810276605L302.06512751591265,106.94731841714389L305.18289455702757,107.32643044925862L307.87934063854294,107.58363225419377L310.2391494908143,107.8095885144619L313.1323665034895,108.14584033055054L316.29868930550896,108.54800188465956L319.3099872928991,108.9899995907077L319.30998728696744,108.9999995907077L319.3099872810358,109.00999959070771L316.298681537655,109.45198606267542L313.13219183421415,109.85398220858293L310.23748412188064,110.18934542400814L307.8712938091149,110.40996358917194L305.1084023459538,110.6350978293224L302.00789781963505,110.72752132124549L298.9767230161657,109.68115891407777L296.7792165655924,107.31328249514873L295.86487040599224,104.11607004881618L295.82145352189826,101.12629459901214L296.03780725851703,98.42376325179235L297.1246026183594,95.25113034857648L298.8604947235703,91.58612671038341L300.1892765199557,89.50282670389475L302.88092423962365,86.53233560229098L305.88937563325396,83.20769990049186L309.7364827680429,80.55833148632301L313.59579507986234,78.6204825635126L315.8758624545663,77.88967207448735L319.0160324665521,77.11633506399589L322.7267111440898,76.48578477106753L325.0983656537182,76.69706871298102L328.7407187085309,77.10189320605043L330.89694096385807,78.65655801470912L332.5357306076796,80.60021178622726L332.8807457229461,83.29131590441526L332.0094868329805,85.00316227766017Z" fill="white">

</path><path d="M333.59907106781185,85.58492893218813L333.592,85.592L333.5849289321881,85.59907106781186Z" fill="white">

</path><path d="M353.9916794970566,82.00554700196226L352.5396757904853,80.41987446412334L349.8254895086529,78.86306123976597L347.16390014723106,79.46582319974515L344.06343207060473,81.04941683847426L341.8158719259103,83.52903238858045L339.0724694871251,85.87885787527556L336.49646498425136,87.60859412497555L333.754008741852,89.6163143872971L332.56827904175447,92.47127143143328L331.6957517437342,95.13683053539887L330.9462085334855,98.74689687415172L331.6181088026215,102.67705053902131L332.60503671536895,106.5245725641154L335.20904052775677,104.52390101540946L337.0313169967849,102.01378005824206L338.8679556173526,98.98164408709196L340.9822231617597,95.85705208840443L343.22964231647956,92.41381793874518L345.3695478546986,89.20775305951112L346.6848153436117,86.17873864768931L347.1079884256597,85.71692393992674L347.62938703075866,85.36980468624483L348.2187074474824,85.15755547397688L348.8416983455219,85.09251223731243L349.4621514646119,85.17845529222242L350.0440060403191,85.41038962431749L350.5534446573651,85.77483519931889L350.9608587193913,86.2506104232841L351.2425693019704,86.8100632178421L351.3822033728068,87.4206781602874L351.37164539314296,88.04696628147542L351.21150899325283,88.65252768637673L350.91110130822204,89.20216711768627L348.43870056327745,91.16788997962725L346.64217203142715,94.82344567901087L346.13560928330327,97.7877349255221L345.7199585348498,101.64550803154519L345.4114464614298,105.03402251034636L347.96137030299104,107.09892722693053L354.20442469257256,107.98861531173723L354.20440728792204,107.99861529659113L354.2043898832715,108.00861528144502L347.88249273311004,108.8011312175465L344.91644753035837,108.7041060223855L342.70329594663536,106.27584543744766L342.4857629776018,103.61959384789503L342.14065547032175,99.60081050819014L341.97356939698625,95.43032956901202L342.24346358545023,93.03971504725651L342.87507964565276,90.5584908345535L344.8186280730478,87.64112045218324L346.68466419332026,86.17894997710381L347.1077910917817,85.71709295434218L347.6291549823483,85.36992156253544L348.2184541712043,85.15761341928717L348.84143856180515,85.09250788385822L349.46190027209843,85.17838889302669L350.04377803832955,85.41026503850462L350.5532530973858,85.77465966782216L350.9607147348972,86.25039414800237L351.2424812613471,86.8098187687049L351.3821763929795,87.42041974469005L351.3716810421804,88.0467089185446L351.21160519923137,88.65228633405806L350.91125247964567,89.20195580338786L349.5850018079462,92.2047266787501L348.2804355679124,94.43595150787107L346.60789374475087,96.52268392346251L344.52713222561533,100.56645422406616L342.7726626728454,103.62151728231551L340.7986312057868,106.66608288574996L338.3486532648611,109.84393611502769L335.72191123078983,112.00206674885735L331.1855383038556,112.41720509154507L328.1067594763592,109.89529770508736L327.0086215966485,107.38684331247454L326.0570186396914,103.19342903367682L325.49247421704666,98.59296342741919L326.3899707223794,95.97384671052261L326.8453383919083,92.4443378828888L329.07518672331275,89.26332180594305L330.2464129002137,86.84881945366563L332.80788367792036,85.44244453001633L335.6680271541095,83.7833159666941L338.47666156575434,82.0746450134147L340.6818618638501,80.24936928722413L343.3134430085158,78.56408325770772L346.1923439738631,77.74539552725601L348.7250197930141,77.30090355328261L350.94570252151385,78.75198385088902L353.09232420951463,80.02812553587667L354.0083205029434,81.99445299803774Z" fill="white">

</path><path d="M355.59907106781185,83.58492893218813L355.592,83.592L355.5849289321881,83.59907106781186Z" fill="white">

</path><path d="M385.995527864045,61.008944271909996L383.4936467938979,60.168833609035985L381.04800610014036,61.128134730797875L379.39558714413425,63.78679940413033L377.06835780900616,67.9391531878837L375.21709582119126,70.29199047716611L372.33556765608853,74.94761451377293L370.38972156377383,77.34697650404507L369.2202036079488,79.79015438996394L367.3866644260272,82.73642056559967L366.17517712804,85.07984929083881L365.14031218192923,87.67358720632274L364.10207435478674,90.4999376631294L363.73978436964336,93.17280168606273L362.90032494679974,96.29512048012899L362.5942354841584,99.08147000656504L362.53107854797184,101.41905222176746L362.5048602705806,106.17906079069408L362.52972421046815,110.53156780349089L363.24656146692,113.535719613641L366.057098191896,114.31261060479984L368.488683268269,114.04790700641897L371.9682846037549,111.43186609518538L374.08548204933635,109.73215548444732L376.8698542377077,106.17921951423723L378.4503072158633,102.96364595518948L378.45903768977274,102.96852230888017L378.4677681636822,102.97339866257086L377.53265549139564,106.55523729180096L376.5296278027987,108.69625624763476L375.2198676304943,110.89063866947312L373.427180297791,112.99655094873727L371.63400829868334,114.98419394341546L367.75474594605157,117.47083013287795L363.81098829708054,117.3068492421927L361.49440508568375,115.82035253752235L360.1268164779802,113.0130370953807L359.47515140917136,110.5603703895754L359.52442906308625,106.15524688583835L359.6448714091769,101.26589873779403L359.83701441081405,98.79340979628176L360.1566600898974,95.59429080135826L360.8508652301046,92.75222596464128L361.34559623283087,89.5123850101647L362.4079000426238,86.55269385567263L363.61946067723716,83.6708395866008L365.0119576457306,81.2995815849876L366.65877205812416,78.49416460657348L368.2156109511109,75.54596221295839L370.0500512529427,73.43703920437282L371.78970519329073,70.83743517539439L373.3101227307551,68.69540450400558L375.1258053085094,66.67701098165475L377.98149809661214,62.59134944209736L380.3226040062276,60.03087169838613L383.77035320610213,59.46316639096402L386.004472135955,60.991055728090004Z" fill="white">

</path><path d="M350,74.01L347.632,74.333539115241L347.257856,74.36676016711453L347.1700818077232,74.35610210804211L347.0874090556256,74.3247473777189L347.01464268794336,74.27451831454447L346.95601188938525,74.20833423403052L346.91492428471815,74.13004175804618L346.89376788745585,74.04419124897422L346.89377230840114,73.95577234243555L346.91493729060863,73.86992394943256L346.9560327243179,73.79163558260014L347.01467014099086,73.72545736549696L347.0874415312155,73.67523557921044L347.1701174183728,73.64388911631919L347.25789267601664,73.63323983471926L349.902282449656,73.43935774692399L354.34275323004863,73.99594995648724L356.7614657135497,74.58848593973877L359.26805107317523,74.71871391651376L362.8339204749794,75.43483932971648L365.90576421171136,75.66105159321272L369.5066603596777,75.82305745448683L372.7591738679512,75.95826905042081L376.4541116622681,76.18190865988291L379.85810653576283,76.90818999156069L382.8981997151301,77.23937943255476L385.9153497033478,77.44781831401022L388.32964056960014,77.5667751608063L394.84257807657235,77.05602613580768L394.84314774914094,77.0660098962798L394.8437174217095,77.0759936567519L390.5782871307949,77.68997847258282L388.3243604939552,78.37705607561809L385.8836725112488,78.41451314781426L382.8052861049596,78.42319767976016L379.61122145465293,78.26479312685824L376.4413000789471,77.79108917937918L372.7295803997331,77.9755491830647L369.43636480621507,78.01473233346788L365.69968962626126,77.94137435765667L362.39513304946337,77.59071447143398L359.0384526632041,76.89293755689422L354.1751709840722,75.67112204351275L349.88570903271193,74.56064225307601L347.25789267601664,74.36676016528074L347.1701174183728,74.35611088368081L347.0874415312155,74.32476442078956L347.01467014099086,74.27454263450304L346.9560327243179,74.20836441739986L346.91493729060863,74.13007605056744L346.89377230840114,74.04422765756445L346.89376788745585,73.95580875102578L346.91492428471815,73.86995824195382L346.95601188938525,73.79166576596948L347.01464268794336,73.72548168545553L347.0874090556256,73.6752526222811L347.1700818077232,73.64389789195789L347.257856,73.63323983288547L347.632,73.666460884759L350,73.99Z" fill="white">

</path><path d="M413.99292893218814,80.00707106781186L411.9619470173172,78.5058235251017L408.80658342439244,77.83577596839075L405.7025040709999,77.08453259417186L402.311215454602,77.19816282119113L399.39445588944733,78.24569011294739L396.2772390657087,79.42088975620914L393.3344319306254,80.60322821936671L391.3053784363734,81.76388581728389L390.550475025256,84.37729084884474L392.19141300343955,86.43523660918875L395.07828593748076,87.92747700244257L398.3652787925819,88.9986641394601L400.94335416763533,89.15647675747302L403.2170358473487,90.01911886916382L406.4274801251948,91.06414399682441L409.25031950212133,94.13482443950113L409.8462825116153,97.09383656569477L409.89651723289893,100.17337415169685L409.1217269355041,102.77970702740679L406.94090008593224,106.64232937882939L403.7936726185113,110.13925088317015L400.6847991118561,113.09780196864727L397.4047196265623,115.3558015356584L394.8468625263269,115.9998548349372L391.603235603343,117.04486452738242L387.1412326219138,116.41104491234331L384.5671212491237,115.27575770247785L381.47962125677515,112.47813019191271L381.11221233537043,109.60810008815535L383.7548513945947,105.95835781589805L386.94156649563143,103.26589480448915L389.0334371269956,101.61011881978573L391.90711811747536,99.89340156544061L396.55657478947313,97.54711772549688L396.5601796342397,97.55644537762421L396.5637844790063,97.56577302975155L392.59792362415914,100.7920725025166L390.40048871034395,102.97192546442312L388.76903604686737,105.06264510778745L386.2959616490593,108.22596980014269L384.66441414719253,110.52445476459603L387.2570694374633,112.03541897895539L390.79312946457696,112.52404723229346L393.744911478383,111.41046667407295L396.2524328500298,110.35365110609366L398.78194368364416,108.28560420082744L401.33485546222863,105.41862562043293L403.0162237958677,102.56469073571546L404.0828202421552,98.96189206301301L403.3356592703954,95.54859964466654L400.9041234028326,95.09788975784885L398.3404383352275,94.57667188477532L395.2345814046532,93.54497093827864L391.3322357787263,92.37896867971345L388.1239608867965,89.95883051063159L386.35509557398115,87.34466653942134L385.8779903168456,83.4554679833302L387.27931119647417,80.42871104272803L390.14234564625826,77.83705564202543L392.46052723551105,76.99950546064412L395.603667113023,76.19261033997284L399.00276019770473,75.43248712766908L402.28567088209604,74.86854974498813L406.0938623307327,75.31623013037674L409.08277644760756,76.57172790360926L412.4860529826828,77.9421764748983L414.00707106781186,79.99292893218814Z" fill="white">

</path><path d="M415.59907106781185,81.58492893218813L415.592,81.592L415.5849289321881,81.59907106781186Z" fill="white">

</path><path d="M429,81.01L426.632,81.37410854627942L426.0154715743695,78.90901383546513L429.06523540055656,78.13121719011254L432.54342969742584,76.96876449413584L436.60442951983214,76.56055505763295L440.61801643429493,76.31675396996397L443.1945452672958,76.10328569309792L444.979035786329,75.5399097026174L445.4096609008776,75.24672796221631L445.89793721215085,75.0651246416685L446.41548607799604,75.00565453449681L446.9322275340132,75.07177404612425L447.4181285424997,75.2596403074284L447.84494851401234,75.55833452247542L448.1878806517527,75.9504965694527L448.42699372376285,76.41333397176425L448.54839046706275,76.9199465978414L448.545015297228,77.44089009805346L448.41706437928804,77.94588721169167L448.1719742266053,78.40558748278421L447.8239894903692,78.79327310997624L445.37977667771713,79.06116098913878L442.84704533185675,79.39728440281793L440.1313524066077,80.93025265551216L435.65361588350373,82.49468106615743L433.53058475793455,83.51889830720754L431.3876946750157,84.90906994370452L431.0713340066732,87.39815730694802L431.0408449163143,90.15604654505921L431.3897845163591,92.83528914518097L431.6814204479294,95.30517543991571L432.18369030963623,98.80887978573064L432.39939470474945,101.95943305445593L432.45263275375595,104.33755827565435L432.3576820365227,107.11946048935216L431.57125140752476,110.45454786417356L430.40553069286045,113.98868685243988L429.2812602735983,117.25389588688975L428.06136218011073,120.82959363429534L426.8232523012855,124.62434967847001L425.7557311658662,128.00506405188375L424.6273223150106,131.6755290821049L423.61220631972503,135.00762234460916L421.9421687834829,138.27838617432087L420.76019310601265,141.27181893050493L419.03791471322967,143.93369400034038L417.9075757922377,146.10742821114943L416.1566161186121,148.39005537686498L414.1326341361114,150.1161419895721L411.34384667097214,151.48165137435205L408.8517806706707,152.15656597004704L404.4711818791981,152.6599725904907L400.24477911207254,152.15300632023582L397.32185684958563,150.14464453759115L395.9199558532877,146.27387192151147L396.48087652459486,143.64652935884422L397.4013687857629,141.07936134028293L399.2542831240072,138.01465515294473L401.3229088097831,135.1228995206786L404.97403033682343,131.67953824447065L408.885874370957,127.53879378639041L412.9580949198449,122.96666817711098L417.67211533177834,118.18882021140705L423.2024797116411,113.33629694315782L428.4349101809491,109.01910478755664L428.44138902950283,109.02672217040234L428.44786787805657,109.03433955324803L423.3533488643533,113.50057644116738L418.0823664721294,118.56822239723313L413.73426244267415,123.59471076563459L410.1051975960013,128.54301734778986L406.74918526846665,133.22686159420644L404.1947764973003,136.9025902800005L402.66161223649124,139.85174141734723L401.4905316076156,142.39710084180516L400.8031930670191,144.87421128352847L400.15154645020857,147.13706134577342L402.416985441797,149.18887974874986L406.2891737281554,149.2485823871937L410.16166784201465,148.89415632000004L414.19619597881933,146.75488703922557L415.85912052499623,144.8948816322098L417.29222331920647,142.7190262039714L418.95092952250724,140.52406392320034L420.25175922759524,137.41740513378033L421.76506821723115,134.4428465477958L422.74835056968595,131.1736593796719L423.61601610054686,127.37039786423581L424.5388733516878,124.0409981551564L425.27718108698065,120.09527850694589L425.99948302809634,116.30706524360343L426.7335460269794,113.13131591837671L427.2206032979652,109.58467461331809L427.5831383200704,107.17275146528426L427.4023191006391,104.57472592688592L426.94496125703876,100.44619159631144L426.12753407545534,97.79929141308016L425.7952769695107,94.58210908815992L424.9655317529347,90.13339882055067L424.96697258964144,87.22798027000475L425.1512091656468,84.82115459357533L426.6682242956684,81.27703650591987L429.85517516424517,79.02615445700182L431.9928314111179,78.08199481748545L434.59604872297217,77.1077622530766L437.21094158424506,76.21600543478883L440.07287181495803,75.3241986440076L442.502218490902,74.60648088301274L444.9788731323841,75.54005196656883L445.4094689266056,75.24682716512226L445.8977270751054,75.06517501785143L446.4152699913521,75.00565315609059L446.93201805673675,75.07172099324191L447.41793784941984,75.25953866350596L447.8447876882198,75.55819019506244L448.1877590404502,75.95031794686518L448.4269183950049,76.41313143555539L448.54836579896033,76.91973191942516L448.54504272349243,77.44067575454949L448.4171423059035,77.94568566075449L448.1720981244732,78.40541043856375L447.8241521585397,78.79313086229092L446.82204396276865,79.01597764676391L443.1984593449695,79.89837168857696L440.63023311074363,79.69320242706397L436.66888810463024,79.49925605484741L432.8804795229606,79.39053909390945L429.26332344932354,80.027229008737L426.632,80.62589145372058L429,80.99Z" fill="white">

</path><path d="M461.99,78L461.7112469570131,75.77717910156922L460.9772966222166,75.257856L460.98981287249325,75.15477871820777L461.02663417826903,75.05769229287635L461.0856204835222,74.97223939160763L461.16334350142,74.9033865410383L461.2552859665104,74.85513547207852L461.35610417840246,74.83029053912325L461.4599385778841,74.83029573084323L461.56075430477875,74.85515074549544L461.6526919443026,74.90341100846047L461.7304080765267,74.97227163098731L461.78938583619487,75.05773043045929L461.826197433144,75.15482053743584L461.8387033756299,75.25789907033771L460.07509556891864,77.83087786609416L458.45124682963257,80.39564200040964L456.73956710082376,84.213931501358L454.9605486445041,88.2682458619996L454.0764750376864,90.74777106370483L453.0832555509597,95.58398120079744L452.88242137519006,99.64965953462679L453.50438468154726,102.14936775856701L455.3163436761439,103.63604961093174L457.8926735729896,105.54843679267543L459.4888127048649,103.64336866909703L462.06561786065987,101.45288244285136L463.9749122259803,99.5470956495117L467.043924837066,95.82186822552201L470.1438968118312,91.94100305333893L473.2352813454239,88.02100722494127L475.4433419963844,85.07632432166162L476.672199712809,81.88180579088628L477.70250172756323,79.24122788186459L479.59247730397584,80.71187395828974L477.14302314240837,82.93053794929139L475.10353733030877,84.14597838631958L473.16572966078036,86.72701920359391L472.0108494571836,89.11418401282565L470.9933776112887,91.2435118563153L469.81004329920336,93.64691237745643L468.2007978215512,98.33841419887969L467.63637953087397,104.58695988842842L467.6267123512022,104.58951833272012L467.6170451715304,104.59207677701181L466.7367197428625,100.36624658120519L466.82139667290085,97.95946510235407L467.2328257136403,95.2947780366809L467.42862989411185,92.81920222530314L468.52827728082076,88.36257133823865L468.98760363604043,85.93661759330254L470.8218624971804,83.00744079602279L472.2182270767929,80.8349043190348L474.28162757539053,79.3992137522797L476.25358819554697,77.7045662904017L479.3441830974364,76.42055326346922L481.86643937775807,80.35737031442345L480.7382980844399,82.81950017489642L480.1217513630106,85.298831996774L479.01533854264454,87.34732262772502L476.40750351514,90.73465735951329L474.9327601363058,92.55576879371034L473.49951473999926,94.80919269141404L472.04120992298647,96.62369387612509L469.16684302684536,100.69475088704901L466.2230883433778,104.72355100184576L463.132884503166,107.62720902155765L460.5447968813502,109.6720392882199L456.45279759228305,110.08429471070052L453.86074443294547,108.30901069552978L451.7424329575537,106.66602080109615L449.70858351290434,103.4004583419375L449.1314504903158,100.96840931393018L449.52227048238825,97.19868161114503L449.96214030624225,94.70852611989847L450.72196334799554,92.17184689758155L451.3015758153627,89.68607241413956L452.4170269757143,86.99117442683472L454.6339888645403,83.1264921868527L456.89816184349803,79.43139380439324L459.12925295767343,76.91938528271199L460.9772966243701,75.25789907033771L460.98980256685604,75.15482053743584L461.02661416380516,75.05773043045929L461.0855919234733,74.97227163098731L461.1633080556974,74.90341100846047L461.2552456952213,74.85515074549544L461.35606142211594,74.83029573084323L461.45989582159757,74.83029053912325L461.5607140334896,74.85513547207852L461.65265649858003,74.9033865410383L461.73037951647785,74.97223939160763L461.789365821731,75.05769229287635L461.8261871275068,75.15477871820777L461.8387033777834,75.257856L462.2887530429869,75.48682089843079L462.01,78Z" fill="white">

</path><path d="M463.59907106781185,79.58492893218813L463.592,79.592L463.5849289321881,79.59907106781186Z" fill="white">

</path><path d="M499.0083205029434,76.00554700196226L498.0741631313737,77.94803013989687L496.84084634063856,81.22801548872602L494.74896117866143,85.70781094712143L493.6066141076069,90.48125751413787L492.750525789361,92.88719539009784L490.9458073240285,96.13617146620705L490.2718325941873,98.46694422199938L489.8741276042226,101.20326347921706L489.67756109266446,104.30367346074588L489.4419319554785,107.3102181170797L489.01000382056304,109.45973456312494L489.00971204789874,109.46212765180087L489.00885603267534,109.4643813693155L489.0074855265378,109.46636472950101L489.0056801833672,109.4679624593702L489.00354492979346,109.469081698788L489.0012038668546,109.4696573975069L488.9987930572387,109.46965609589026L488.9964526173138,109.46907786958813L488.99431857355836,109.46795632514036L488.9925149566957,109.46635664676293L488.99114659302256,109.46437180783832L488.99029301190006,109.46211716729806L488.990003823503,109.45972376495631L489.0000038217631,109.45972966404055L489.01000382100295,109.45973356312504L489.009712287649,109.46212668096628L489.0088564978016,109.46438048407116L489.00748619000694,109.46636398129735L489.0056810066183,109.46796189169287L489.00354586497923,109.46908134463044L489.00120485962196,109.46965727745274L488.9987940498879,109.46965621691709L488.9964535521521,109.46907822466184L488.9943193962529,109.46795689362405L488.9925156194314,109.4663573956163L488.99114705728124,109.46437269353798L488.9902932506989,109.46211813836712L488.9900038229631,109.45972476495616L488.55874411650666,107.30978543586377L488.3323932468882,104.29412406315298L488.27243796587265,101.06757721452054L488.6086314706875,98.04742941877335L489.2121928349782,95.3206266729418L490.53869028663604,91.97750593134538L491.55322921591517,89.83418690116412L492.4869210086226,87.22475413217272L493.3166104976296,84.86382265114597L495.76375090736144,80.88262463927398L497.5578368686262,77.60396986010312L498.9916794970566,75.99445299803774Z" fill="white">

</path><path d="M499.59907106781185,77.58492893218813L499.592,77.592L499.5849289321881,77.59907106781186Z" fill="white">

</path><path d="M534.9902985749985,81.00242535625037L534.0380339263166,78.74388131270688L532.1122201033712,76.78475460317065L529.0295629161091,76.08114089469561L526.1530977419168,76.29310074186911L523.5448385705853,76.99462800268063L520.0715038883906,78.91583587422213L516.8981243161206,80.38571203265873L514.6648116141678,82.05051334340821L511.4877345255298,85.09663695805139L509.2782726660722,88.30451436965792L508.205149343362,91.13245879324931L507.32459244256273,93.34554936518022L506.93660157536993,96.74508170477142L506.7373200887382,99.24991972623687L507.9520209234267,101.95375672772074L512.6774381446886,103.44953581609889L515.8078041060189,104.03795448025943L518.7808548317038,103.82429463093158L525.1598007570688,103.2096238723032L525.1609862034672,103.21955335954254L525.1621716498657,103.22948284678189L518.9280336182582,104.81355330667103L515.6747656242801,105.52539830798224L512.2504288413385,105.4802504295915L508.40981873230595,105.14962763938321L506.08793357740916,104.51910374475624L504.1398640932846,102.89497374145576L503.3345688110446,99.18137449926164L503.3441967307408,94.33872480689749L504.38915656470033,90.25697513075256L505.0437738780063,87.81493281899795L507.42186669602205,84.63094932364496L509.04283534748873,82.52033267847901L512.7331715714972,79.43781828703673L515.4302658448232,77.45823804196125L518.5372955256877,75.79972803416021L522.3230933190624,74.19133357689407L526.1661778350717,73.71868306468774L529.0991110133201,73.98964802397049L531.812947639232,74.45044874701343L533.720198929758,76.40422717751852L534.7779660736834,78.52011868729313L535.0097014250015,80.99757464374963Z" fill="white">

</path><path d="M535.5990710678119,82.58492893218813L535.592,82.592L535.5849289321881,82.59907106781186Z" fill="white">

</path><path d="M538.0097014250015,90.00242535625037L537.7779789961511,92.42279447697666L540.1857151079631,92.41198370140927L542.7435287459011,91.2291655425673L545.0253163828764,90.4252539709624L547.3370990091956,89.97812942852933L551.3887627067057,88.74470592483507L555.687670815225,87.06931000564389L559.8028551710714,85.06883916429267L564.2108092099492,83.39517484717257L566.3540415638382,82.25575399294779L568.9779974789084,81.50843935687975L571.8137167034764,79.7798660847057L573.6749794289236,78.11652822195883L571.1305700752488,77.66114931523988L568.689766525175,76.9840026753215L565.268408273937,75.93121107109037L561.7921915233441,75.72747464009146L557.6971515778495,75.57925071627318L554.0633484000288,75.55203094318941L550.8969404344126,77.07096459550195L548.4225814768017,79.09273800039321L545.7565792892854,81.39233799241894L543.9896924319717,83.59923007408949L541.677661958708,86.90347639417674L540.4872804411636,89.7189942454382L539.5188820417575,94.31949601133364L539.151611907357,98.60273421902417L539.6476458167493,101.0733819133993L542.5402626857563,104.15368534726072L546.658597367651,105.05115287199148L549.7769467822503,105.4095839553268L553.2650228775299,105.20696405527399L557.0443370417537,104.19583863066673L563.5270644728414,102.79137609570009L570.316468066925,100.58263619020408L574.8822303337778,99.09949252635049L574.8855846340459,99.10891317758653L574.8889389343141,99.11833382882257L570.4167899431039,100.85321271953381L563.7603326105632,103.629822212481L557.6012440450221,105.73847094820847L553.611401354764,107.53399079491034L549.665269473372,108.40648185394848L546.1703640431876,108.49802803309497L543.6179892625993,108.1498978730838L540.2142632828538,107.13810690263374L537.3401881704774,104.94521827658808L535.5616845406256,102.46151001455176L534.8962806875701,99.95530470677203L535.1260838941774,96.08955628535077L535.3952325988871,93.43407119198052L536.1021241186481,88.37923241806966L537.8630709313564,84.57395213996786L540.3639989971932,81.05083561065064L542.0122722527856,78.3970386858657L545.3014882444054,75.43129529380045L548.5581112356614,72.96441419026354L551.424905270336,71.17361772620833L553.9863180147762,70.44981201243758L557.7138586994771,70.43182048006355L560.2111309849105,70.3195101979893L563.3697584787728,70.42692177619598L567.1964377598727,71.04803928280081L570.3133935202984,71.99669197271766L574.2044455766246,73.3282216480864L576.2272376958442,74.5891938502756L577.8494460906376,76.81998558451096L577.2047591014417,81.11900980079811L574.9305061812055,83.17766083374548L571.9259440171722,84.34452394682567L568.0639017114862,85.60385261025529L565.0096399942773,87.16268447440362L561.3034573302899,88.28239186209247L559.1166763248267,89.21837083748471L556.7329877137139,90.14598595255204L554.1388741302434,90.97775356415046L550.0068797987526,91.76904966291335L545.6355070733315,92.54304935835167L541.7643043897099,93.16508576680896L538.4396571876947,94.21487697466254L537.0380210038489,92.31320552302333L537.9902985749985,89.99757464374963Z" fill="white">

</path><path d="M539.5990710678119,91.58492893218813L539.592,91.592L539.5849289321881,91.59907106781186Z" fill="white">

</path>
</mask>
</svg>